<svg width="411" height="140" viewBox="0 0 411 140" fill="none" xmlns="http://www.w3.org/2000/svg">
<g opacity="0.1" clip-path="url(#clip0_386_18177)">
<circle cx="8" cy="2" r="2" fill="white"/>
<circle cx="18" cy="2" r="2" fill="white"/>
<circle cx="28" cy="2" r="2" fill="white"/>
<circle cx="38" cy="2" r="2" fill="white"/>
<circle cx="48" cy="2" r="2" fill="white"/>
<circle cx="58" cy="2" r="2" fill="white"/>
<circle cx="68" cy="2" r="2" fill="white"/>
<circle cx="78" cy="2" r="2" fill="white"/>
<circle cx="88" cy="2" r="2" fill="white"/>
<circle cx="98" cy="2" r="2" fill="white"/>
<circle cx="108" cy="2" r="2" fill="white"/>
<circle cx="118" cy="2" r="2" fill="white"/>
<circle cx="128" cy="2" r="2" fill="white"/>
<circle cx="138" cy="2" r="2" fill="white"/>
<circle cx="148" cy="2" r="2" fill="white"/>
<circle cx="158" cy="2" r="2" fill="white"/>
<circle cx="168" cy="2" r="2" fill="white"/>
<circle cx="178" cy="2" r="2" fill="white"/>
<circle cx="188" cy="2" r="2" fill="white"/>
<circle cx="198" cy="2" r="2" fill="white"/>
<circle cx="208" cy="2" r="2" fill="white"/>
<circle cx="218" cy="2" r="2" fill="white"/>
<circle cx="228" cy="2" r="2" fill="white"/>
<circle cx="238" cy="2" r="2" fill="white"/>
<circle cx="248" cy="2" r="2" fill="white"/>
<circle cx="258" cy="2" r="2" fill="white"/>
<circle cx="268" cy="2" r="2" fill="white"/>
<circle cx="278" cy="2" r="2" fill="white"/>
<circle cx="288" cy="2" r="2" fill="white"/>
<circle cx="298" cy="2" r="2" fill="white"/>
<circle cx="308" cy="2" r="2" fill="white"/>
<circle cx="318" cy="2" r="2" fill="white"/>
<circle cx="328" cy="2" r="2" fill="white"/>
<circle cx="338" cy="2" r="2" fill="white"/>
<circle cx="348" cy="2" r="2" fill="white"/>
<circle cx="358" cy="2" r="2" fill="white"/>
<circle cx="368" cy="2" r="2" fill="white"/>
<circle cx="378" cy="2" r="2" fill="white"/>
<circle cx="388" cy="2" r="2" fill="white"/>
<circle cx="398" cy="2" r="2" fill="white"/>
<circle cx="408" cy="2" r="2" fill="white"/>
<circle cx="8" cy="12" r="2" fill="white"/>
<circle cx="18" cy="12" r="2" fill="white"/>
<circle cx="28" cy="12" r="2" fill="white"/>
<circle cx="38" cy="12" r="2" fill="white"/>
<circle cx="48" cy="12" r="2" fill="white"/>
<circle cx="58" cy="12" r="2" fill="white"/>
<circle cx="68" cy="12" r="2" fill="white"/>
<circle cx="78" cy="12" r="2" fill="white"/>
<circle cx="88" cy="12" r="2" fill="white"/>
<circle cx="98" cy="12" r="2" fill="white"/>
<circle cx="108" cy="12" r="2" fill="white"/>
<circle cx="118" cy="12" r="2" fill="white"/>
<circle cx="128" cy="12" r="2" fill="white"/>
<circle cx="138" cy="12" r="2" fill="white"/>
<circle cx="148" cy="12" r="2" fill="white"/>
<circle cx="158" cy="12" r="2" fill="white"/>
<circle cx="168" cy="12" r="2" fill="white"/>
<circle cx="178" cy="12" r="2" fill="white"/>
<circle cx="188" cy="12" r="2" fill="white"/>
<circle cx="198" cy="12" r="2" fill="white"/>
<circle cx="208" cy="12" r="2" fill="white"/>
<circle cx="218" cy="12" r="2" fill="white"/>
<circle cx="228" cy="12" r="2" fill="white"/>
<circle cx="238" cy="12" r="2" fill="white"/>
<circle cx="248" cy="12" r="2" fill="white"/>
<circle cx="258" cy="12" r="2" fill="white"/>
<circle cx="268" cy="12" r="2" fill="white"/>
<circle cx="278" cy="12" r="2" fill="white"/>
<circle cx="288" cy="12" r="2" fill="white"/>
<circle cx="298" cy="12" r="2" fill="white"/>
<circle cx="308" cy="12" r="2" fill="white"/>
<circle cx="318" cy="12" r="2" fill="white"/>
<circle cx="328" cy="12" r="2" fill="white"/>
<circle cx="338" cy="12" r="2" fill="white"/>
<circle cx="348" cy="12" r="2" fill="white"/>
<circle cx="358" cy="12" r="2" fill="white"/>
<circle cx="368" cy="12" r="2" fill="white"/>
<circle cx="378" cy="12" r="2" fill="white"/>
<circle cx="388" cy="12" r="2" fill="white"/>
<circle cx="398" cy="12" r="2" fill="white"/>
<circle cx="408" cy="12" r="2" fill="white"/>
<circle cx="8" cy="22" r="2" fill="white"/>
<circle cx="18" cy="22" r="2" fill="white"/>
<circle cx="28" cy="22" r="2" fill="white"/>
<circle cx="38" cy="22" r="2" fill="white"/>
<circle cx="48" cy="22" r="2" fill="white"/>
<circle cx="58" cy="22" r="2" fill="white"/>
<circle cx="68" cy="22" r="2" fill="white"/>
<circle cx="78" cy="22" r="2" fill="white"/>
<circle cx="88" cy="22" r="2" fill="white"/>
<circle cx="98" cy="22" r="2" fill="white"/>
<circle cx="108" cy="22" r="2" fill="white"/>
<circle cx="118" cy="22" r="2" fill="white"/>
<circle cx="128" cy="22" r="2" fill="white"/>
<circle cx="138" cy="22" r="2" fill="white"/>
<circle cx="148" cy="22" r="2" fill="white"/>
<circle cx="158" cy="22" r="2" fill="white"/>
<circle cx="168" cy="22" r="2" fill="white"/>
<circle cx="178" cy="22" r="2" fill="white"/>
<circle cx="188" cy="22" r="2" fill="white"/>
<circle cx="198" cy="22" r="2" fill="white"/>
<circle cx="208" cy="22" r="2" fill="white"/>
<circle cx="218" cy="22" r="2" fill="white"/>
<circle cx="228" cy="22" r="2" fill="white"/>
<circle cx="238" cy="22" r="2" fill="white"/>
<circle cx="248" cy="22" r="2" fill="white"/>
<circle cx="258" cy="22" r="2" fill="white"/>
<circle cx="268" cy="22" r="2" fill="white"/>
<circle cx="278" cy="22" r="2" fill="white"/>
<circle cx="288" cy="22" r="2" fill="white"/>
<circle cx="298" cy="22" r="2" fill="white"/>
<circle cx="308" cy="22" r="2" fill="white"/>
<circle cx="318" cy="22" r="2" fill="white"/>
<circle cx="328" cy="22" r="2" fill="white"/>
<circle cx="338" cy="22" r="2" fill="white"/>
<circle cx="348" cy="22" r="2" fill="white"/>
<circle cx="358" cy="22" r="2" fill="white"/>
<circle cx="368" cy="22" r="2" fill="white"/>
<circle cx="378" cy="22" r="2" fill="white"/>
<circle cx="388" cy="22" r="2" fill="white"/>
<circle cx="398" cy="22" r="2" fill="white"/>
<circle cx="408" cy="22" r="2" fill="white"/>
<circle cx="8" cy="32" r="2" fill="white"/>
<circle cx="18" cy="32" r="2" fill="white"/>
<circle cx="28" cy="32" r="2" fill="white"/>
<circle cx="38" cy="32" r="2" fill="white"/>
<circle cx="48" cy="32" r="2" fill="white"/>
<circle cx="58" cy="32" r="2" fill="white"/>
<circle cx="68" cy="32" r="2" fill="white"/>
<circle cx="78" cy="32" r="2" fill="white"/>
<circle cx="88" cy="32" r="2" fill="white"/>
<circle cx="98" cy="32" r="2" fill="white"/>
<circle cx="108" cy="32" r="2" fill="white"/>
<circle cx="118" cy="32" r="2" fill="white"/>
<circle cx="128" cy="32" r="2" fill="white"/>
<circle cx="138" cy="32" r="2" fill="white"/>
<circle cx="148" cy="32" r="2" fill="white"/>
<circle cx="158" cy="32" r="2" fill="white"/>
<circle cx="168" cy="32" r="2" fill="white"/>
<circle cx="178" cy="32" r="2" fill="white"/>
<circle cx="188" cy="32" r="2" fill="white"/>
<circle cx="198" cy="32" r="2" fill="white"/>
<circle cx="208" cy="32" r="2" fill="white"/>
<circle cx="218" cy="32" r="2" fill="white"/>
<circle cx="228" cy="32" r="2" fill="white"/>
<circle cx="238" cy="32" r="2" fill="white"/>
<circle cx="248" cy="32" r="2" fill="white"/>
<circle cx="258" cy="32" r="2" fill="white"/>
<circle cx="268" cy="32" r="2" fill="white"/>
<circle cx="278" cy="32" r="2" fill="white"/>
<circle cx="288" cy="32" r="2" fill="white"/>
<circle cx="298" cy="32" r="2" fill="white"/>
<circle cx="308" cy="32" r="2" fill="white"/>
<circle cx="318" cy="32" r="2" fill="white"/>
<circle cx="328" cy="32" r="2" fill="white"/>
<circle cx="338" cy="32" r="2" fill="white"/>
<circle cx="348" cy="32" r="2" fill="white"/>
<circle cx="358" cy="32" r="2" fill="white"/>
<circle cx="368" cy="32" r="2" fill="white"/>
<circle cx="378" cy="32" r="2" fill="white"/>
<circle cx="388" cy="32" r="2" fill="white"/>
<circle cx="398" cy="32" r="2" fill="white"/>
<circle cx="408" cy="32" r="2" fill="white"/>
<circle cx="8" cy="42" r="2" fill="white"/>
<circle cx="18" cy="42" r="2" fill="white"/>
<circle cx="28" cy="42" r="2" fill="white"/>
<circle cx="38" cy="42" r="2" fill="white"/>
<circle cx="48" cy="42" r="2" fill="white"/>
<circle cx="58" cy="42" r="2" fill="white"/>
<circle cx="68" cy="42" r="2" fill="white"/>
<circle cx="78" cy="42" r="2" fill="white"/>
<circle cx="88" cy="42" r="2" fill="white"/>
<circle cx="98" cy="42" r="2" fill="white"/>
<circle cx="108" cy="42" r="2" fill="white"/>
<circle cx="118" cy="42" r="2" fill="white"/>
<circle cx="128" cy="42" r="2" fill="white"/>
<circle cx="138" cy="42" r="2" fill="white"/>
<circle cx="148" cy="42" r="2" fill="white"/>
<circle cx="158" cy="42" r="2" fill="white"/>
<circle cx="168" cy="42" r="2" fill="white"/>
<circle cx="178" cy="42" r="2" fill="white"/>
<circle cx="188" cy="42" r="2" fill="white"/>
<circle cx="198" cy="42" r="2" fill="white"/>
<circle cx="208" cy="42" r="2" fill="white"/>
<circle cx="218" cy="42" r="2" fill="white"/>
<circle cx="228" cy="42" r="2" fill="white"/>
<circle cx="238" cy="42" r="2" fill="white"/>
<circle cx="248" cy="42" r="2" fill="white"/>
<circle cx="258" cy="42" r="2" fill="white"/>
<circle cx="268" cy="42" r="2" fill="white"/>
<circle cx="278" cy="42" r="2" fill="white"/>
<circle cx="288" cy="42" r="2" fill="white"/>
<circle cx="298" cy="42" r="2" fill="white"/>
<circle cx="308" cy="42" r="2" fill="white"/>
<circle cx="318" cy="42" r="2" fill="white"/>
<circle cx="328" cy="42" r="2" fill="white"/>
<circle cx="338" cy="42" r="2" fill="white"/>
<circle cx="348" cy="42" r="2" fill="white"/>
<circle cx="358" cy="42" r="2" fill="white"/>
<circle cx="368" cy="42" r="2" fill="white"/>
<circle cx="378" cy="42" r="2" fill="white"/>
<circle cx="388" cy="42" r="2" fill="white"/>
<circle cx="398" cy="42" r="2" fill="white"/>
<circle cx="408" cy="42" r="2" fill="white"/>
<circle cx="8" cy="52" r="2" fill="white"/>
<circle cx="18" cy="52" r="2" fill="white"/>
<circle cx="28" cy="52" r="2" fill="white"/>
<circle cx="38" cy="52" r="2" fill="white"/>
<circle cx="48" cy="52" r="2" fill="white"/>
<circle cx="58" cy="52" r="2" fill="white"/>
<circle cx="68" cy="52" r="2" fill="white"/>
<circle cx="78" cy="52" r="2" fill="white"/>
<circle cx="88" cy="52" r="2" fill="white"/>
<circle cx="98" cy="52" r="2" fill="white"/>
<circle cx="108" cy="52" r="2" fill="white"/>
<circle cx="118" cy="52" r="2" fill="white"/>
<circle cx="128" cy="52" r="2" fill="white"/>
<circle cx="138" cy="52" r="2" fill="white"/>
<circle cx="148" cy="52" r="2" fill="white"/>
<circle cx="158" cy="52" r="2" fill="white"/>
<circle cx="168" cy="52" r="2" fill="white"/>
<circle cx="178" cy="52" r="2" fill="white"/>
<circle cx="188" cy="52" r="2" fill="white"/>
<circle cx="198" cy="52" r="2" fill="white"/>
<circle cx="208" cy="52" r="2" fill="white"/>
<circle cx="218" cy="52" r="2" fill="white"/>
<circle cx="228" cy="52" r="2" fill="white"/>
<circle cx="238" cy="52" r="2" fill="white"/>
<circle cx="248" cy="52" r="2" fill="white"/>
<circle cx="258" cy="52" r="2" fill="white"/>
<circle cx="268" cy="52" r="2" fill="white"/>
<circle cx="278" cy="52" r="2" fill="white"/>
<circle cx="288" cy="52" r="2" fill="white"/>
<circle cx="298" cy="52" r="2" fill="white"/>
<circle cx="308" cy="52" r="2" fill="white"/>
<circle cx="318" cy="52" r="2" fill="white"/>
<circle cx="328" cy="52" r="2" fill="white"/>
<circle cx="338" cy="52" r="2" fill="white"/>
<circle cx="348" cy="52" r="2" fill="white"/>
<circle cx="358" cy="52" r="2" fill="white"/>
<circle cx="368" cy="52" r="2" fill="white"/>
<circle cx="378" cy="52" r="2" fill="white"/>
<circle cx="388" cy="52" r="2" fill="white"/>
<circle cx="398" cy="52" r="2" fill="white"/>
<circle cx="408" cy="52" r="2" fill="white"/>
<circle cx="8" cy="62" r="2" fill="white"/>
<circle cx="18" cy="62" r="2" fill="white"/>
<circle cx="28" cy="62" r="2" fill="white"/>
<circle cx="38" cy="62" r="2" fill="white"/>
<circle cx="48" cy="62" r="2" fill="white"/>
<circle cx="58" cy="62" r="2" fill="white"/>
<circle cx="68" cy="62" r="2" fill="white"/>
<circle cx="78" cy="62" r="2" fill="white"/>
<circle cx="88" cy="62" r="2" fill="white"/>
<circle cx="98" cy="62" r="2" fill="white"/>
<circle cx="108" cy="62" r="2" fill="white"/>
<circle cx="118" cy="62" r="2" fill="white"/>
<circle cx="128" cy="62" r="2" fill="white"/>
<circle cx="138" cy="62" r="2" fill="white"/>
<circle cx="148" cy="62" r="2" fill="white"/>
<circle cx="158" cy="62" r="2" fill="white"/>
<circle cx="168" cy="62" r="2" fill="white"/>
<circle cx="178" cy="62" r="2" fill="white"/>
<circle cx="188" cy="62" r="2" fill="white"/>
<circle cx="198" cy="62" r="2" fill="white"/>
<circle cx="208" cy="62" r="2" fill="white"/>
<circle cx="218" cy="62" r="2" fill="white"/>
<circle cx="228" cy="62" r="2" fill="white"/>
<circle cx="238" cy="62" r="2" fill="white"/>
<circle cx="248" cy="62" r="2" fill="white"/>
<circle cx="258" cy="62" r="2" fill="white"/>
<circle cx="268" cy="62" r="2" fill="white"/>
<circle cx="278" cy="62" r="2" fill="white"/>
<circle cx="288" cy="62" r="2" fill="white"/>
<circle cx="298" cy="62" r="2" fill="white"/>
<circle cx="308" cy="62" r="2" fill="white"/>
<circle cx="318" cy="62" r="2" fill="white"/>
<circle cx="328" cy="62" r="2" fill="white"/>
<circle cx="338" cy="62" r="2" fill="white"/>
<circle cx="348" cy="62" r="2" fill="white"/>
<circle cx="358" cy="62" r="2" fill="white"/>
<circle cx="368" cy="62" r="2" fill="white"/>
<circle cx="378" cy="62" r="2" fill="white"/>
<circle cx="388" cy="62" r="2" fill="white"/>
<circle cx="398" cy="62" r="2" fill="white"/>
<circle cx="408" cy="62" r="2" fill="white"/>
<circle cx="8" cy="72" r="2" fill="white"/>
<circle cx="18" cy="72" r="2" fill="white"/>
<circle cx="28" cy="72" r="2" fill="white"/>
<circle cx="38" cy="72" r="2" fill="white"/>
<circle cx="48" cy="72" r="2" fill="white"/>
<circle cx="58" cy="72" r="2" fill="white"/>
<circle cx="68" cy="72" r="2" fill="white"/>
<circle cx="78" cy="72" r="2" fill="white"/>
<circle cx="88" cy="72" r="2" fill="white"/>
<circle cx="98" cy="72" r="2" fill="white"/>
<circle cx="108" cy="72" r="2" fill="white"/>
<circle cx="118" cy="72" r="2" fill="white"/>
<circle cx="128" cy="72" r="2" fill="white"/>
<circle cx="138" cy="72" r="2" fill="white"/>
<circle cx="148" cy="72" r="2" fill="white"/>
<circle cx="158" cy="72" r="2" fill="white"/>
<circle cx="168" cy="72" r="2" fill="white"/>
<circle cx="178" cy="72" r="2" fill="white"/>
<circle cx="188" cy="72" r="2" fill="white"/>
<circle cx="198" cy="72" r="2" fill="white"/>
<circle cx="208" cy="72" r="2" fill="white"/>
<circle cx="218" cy="72" r="2" fill="white"/>
<circle cx="228" cy="72" r="2" fill="white"/>
<circle cx="238" cy="72" r="2" fill="white"/>
<circle cx="248" cy="72" r="2" fill="white"/>
<circle cx="258" cy="72" r="2" fill="white"/>
<circle cx="268" cy="72" r="2" fill="white"/>
<circle cx="278" cy="72" r="2" fill="white"/>
<circle cx="288" cy="72" r="2" fill="white"/>
<circle cx="298" cy="72" r="2" fill="white"/>
<circle cx="308" cy="72" r="2" fill="white"/>
<circle cx="318" cy="72" r="2" fill="white"/>
<circle cx="328" cy="72" r="2" fill="white"/>
<circle cx="338" cy="72" r="2" fill="white"/>
<circle cx="348" cy="72" r="2" fill="white"/>
<circle cx="358" cy="72" r="2" fill="white"/>
<circle cx="368" cy="72" r="2" fill="white"/>
<circle cx="378" cy="72" r="2" fill="white"/>
<circle cx="388" cy="72" r="2" fill="white"/>
<circle cx="398" cy="72" r="2" fill="white"/>
<circle cx="408" cy="72" r="2" fill="white"/>
<circle cx="8" cy="82" r="2" fill="white"/>
<circle cx="18" cy="82" r="2" fill="white"/>
<circle cx="28" cy="82" r="2" fill="white"/>
<circle cx="38" cy="82" r="2" fill="white"/>
<circle cx="48" cy="82" r="2" fill="white"/>
<circle cx="58" cy="82" r="2" fill="white"/>
<circle cx="68" cy="82" r="2" fill="white"/>
<circle cx="78" cy="82" r="2" fill="white"/>
<circle cx="88" cy="82" r="2" fill="white"/>
<circle cx="98" cy="82" r="2" fill="white"/>
<circle cx="108" cy="82" r="2" fill="white"/>
<circle cx="118" cy="82" r="2" fill="white"/>
<circle cx="128" cy="82" r="2" fill="white"/>
<circle cx="138" cy="82" r="2" fill="white"/>
<circle cx="148" cy="82" r="2" fill="white"/>
<circle cx="158" cy="82" r="2" fill="white"/>
<circle cx="168" cy="82" r="2" fill="white"/>
<circle cx="178" cy="82" r="2" fill="white"/>
<circle cx="188" cy="82" r="2" fill="white"/>
<circle cx="198" cy="82" r="2" fill="white"/>
<circle cx="208" cy="82" r="2" fill="white"/>
<circle cx="218" cy="82" r="2" fill="white"/>
<circle cx="228" cy="82" r="2" fill="white"/>
<circle cx="238" cy="82" r="2" fill="white"/>
<circle cx="248" cy="82" r="2" fill="white"/>
<circle cx="258" cy="82" r="2" fill="white"/>
<circle cx="268" cy="82" r="2" fill="white"/>
<circle cx="278" cy="82" r="2" fill="white"/>
<circle cx="288" cy="82" r="2" fill="white"/>
<circle cx="298" cy="82" r="2" fill="white"/>
<circle cx="308" cy="82" r="2" fill="white"/>
<circle cx="318" cy="82" r="2" fill="white"/>
<circle cx="328" cy="82" r="2" fill="white"/>
<circle cx="338" cy="82" r="2" fill="white"/>
<circle cx="348" cy="82" r="2" fill="white"/>
<circle cx="358" cy="82" r="2" fill="white"/>
<circle cx="368" cy="82" r="2" fill="white"/>
<circle cx="378" cy="82" r="2" fill="white"/>
<circle cx="388" cy="82" r="2" fill="white"/>
<circle cx="398" cy="82" r="2" fill="white"/>
<circle cx="408" cy="82" r="2" fill="white"/>
<circle cx="8" cy="92" r="2" fill="white"/>
<circle cx="18" cy="92" r="2" fill="white"/>
<circle cx="28" cy="92" r="2" fill="white"/>
<circle cx="38" cy="92" r="2" fill="white"/>
<circle cx="48" cy="92" r="2" fill="white"/>
<circle cx="58" cy="92" r="2" fill="white"/>
<circle cx="68" cy="92" r="2" fill="white"/>
<circle cx="78" cy="92" r="2" fill="white"/>
<circle cx="88" cy="92" r="2" fill="white"/>
<circle cx="98" cy="92" r="2" fill="white"/>
<circle cx="108" cy="92" r="2" fill="white"/>
<circle cx="118" cy="92" r="2" fill="white"/>
<circle cx="128" cy="92" r="2" fill="white"/>
<circle cx="138" cy="92" r="2" fill="white"/>
<circle cx="148" cy="92" r="2" fill="white"/>
<circle cx="158" cy="92" r="2" fill="white"/>
<circle cx="168" cy="92" r="2" fill="white"/>
<circle cx="178" cy="92" r="2" fill="white"/>
<circle cx="188" cy="92" r="2" fill="white"/>
<circle cx="198" cy="92" r="2" fill="white"/>
<circle cx="208" cy="92" r="2" fill="white"/>
<circle cx="218" cy="92" r="2" fill="white"/>
<circle cx="228" cy="92" r="2" fill="white"/>
<circle cx="238" cy="92" r="2" fill="white"/>
<circle cx="248" cy="92" r="2" fill="white"/>
<circle cx="258" cy="92" r="2" fill="white"/>
<circle cx="268" cy="92" r="2" fill="white"/>
<circle cx="278" cy="92" r="2" fill="white"/>
<circle cx="288" cy="92" r="2" fill="white"/>
<circle cx="298" cy="92" r="2" fill="white"/>
<circle cx="308" cy="92" r="2" fill="white"/>
<circle cx="318" cy="92" r="2" fill="white"/>
<circle cx="328" cy="92" r="2" fill="white"/>
<circle cx="338" cy="92" r="2" fill="white"/>
<circle cx="348" cy="92" r="2" fill="white"/>
<circle cx="358" cy="92" r="2" fill="white"/>
<circle cx="368" cy="92" r="2" fill="white"/>
<circle cx="378" cy="92" r="2" fill="white"/>
<circle cx="388" cy="92" r="2" fill="white"/>
<circle cx="398" cy="92" r="2" fill="white"/>
<circle cx="408" cy="92" r="2" fill="white"/>
<circle cx="8" cy="102" r="2" fill="white"/>
<circle cx="18" cy="102" r="2" fill="white"/>
<circle cx="28" cy="102" r="2" fill="white"/>
<circle cx="38" cy="102" r="2" fill="white"/>
<circle cx="48" cy="102" r="2" fill="white"/>
<circle cx="58" cy="102" r="2" fill="white"/>
<circle cx="68" cy="102" r="2" fill="white"/>
<circle cx="78" cy="102" r="2" fill="white"/>
<circle cx="88" cy="102" r="2" fill="white"/>
<circle cx="98" cy="102" r="2" fill="white"/>
<circle cx="108" cy="102" r="2" fill="white"/>
<circle cx="118" cy="102" r="2" fill="white"/>
<circle cx="128" cy="102" r="2" fill="white"/>
<circle cx="138" cy="102" r="2" fill="white"/>
<circle cx="148" cy="102" r="2" fill="white"/>
<circle cx="158" cy="102" r="2" fill="white"/>
<circle cx="168" cy="102" r="2" fill="white"/>
<circle cx="178" cy="102" r="2" fill="white"/>
<circle cx="188" cy="102" r="2" fill="white"/>
<circle cx="198" cy="102" r="2" fill="white"/>
<circle cx="208" cy="102" r="2" fill="white"/>
<circle cx="218" cy="102" r="2" fill="white"/>
<circle cx="228" cy="102" r="2" fill="white"/>
<circle cx="238" cy="102" r="2" fill="white"/>
<circle cx="248" cy="102" r="2" fill="white"/>
<circle cx="258" cy="102" r="2" fill="white"/>
<circle cx="268" cy="102" r="2" fill="white"/>
<circle cx="278" cy="102" r="2" fill="white"/>
<circle cx="288" cy="102" r="2" fill="white"/>
<circle cx="298" cy="102" r="2" fill="white"/>
<circle cx="308" cy="102" r="2" fill="white"/>
<circle cx="318" cy="102" r="2" fill="white"/>
<circle cx="328" cy="102" r="2" fill="white"/>
<circle cx="338" cy="102" r="2" fill="white"/>
<circle cx="348" cy="102" r="2" fill="white"/>
<circle cx="358" cy="102" r="2" fill="white"/>
<circle cx="368" cy="102" r="2" fill="white"/>
<circle cx="378" cy="102" r="2" fill="white"/>
<circle cx="388" cy="102" r="2" fill="white"/>
<circle cx="398" cy="102" r="2" fill="white"/>
<circle cx="408" cy="102" r="2" fill="white"/>
<circle cx="8" cy="112" r="2" fill="white"/>
<circle cx="18" cy="112" r="2" fill="white"/>
<circle cx="28" cy="112" r="2" fill="white"/>
<circle cx="38" cy="112" r="2" fill="white"/>
<circle cx="48" cy="112" r="2" fill="white"/>
<circle cx="58" cy="112" r="2" fill="white"/>
<circle cx="68" cy="112" r="2" fill="white"/>
<circle cx="78" cy="112" r="2" fill="white"/>
<circle cx="88" cy="112" r="2" fill="white"/>
<circle cx="98" cy="112" r="2" fill="white"/>
<circle cx="108" cy="112" r="2" fill="white"/>
<circle cx="118" cy="112" r="2" fill="white"/>
<circle cx="128" cy="112" r="2" fill="white"/>
<circle cx="138" cy="112" r="2" fill="white"/>
<circle cx="148" cy="112" r="2" fill="white"/>
<circle cx="158" cy="112" r="2" fill="white"/>
<circle cx="168" cy="112" r="2" fill="white"/>
<circle cx="178" cy="112" r="2" fill="white"/>
<circle cx="188" cy="112" r="2" fill="white"/>
<circle cx="198" cy="112" r="2" fill="white"/>
<circle cx="208" cy="112" r="2" fill="white"/>
<circle cx="218" cy="112" r="2" fill="white"/>
<circle cx="228" cy="112" r="2" fill="white"/>
<circle cx="238" cy="112" r="2" fill="white"/>
<circle cx="248" cy="112" r="2" fill="white"/>
<circle cx="258" cy="112" r="2" fill="white"/>
<circle cx="268" cy="112" r="2" fill="white"/>
<circle cx="278" cy="112" r="2" fill="white"/>
<circle cx="288" cy="112" r="2" fill="white"/>
<circle cx="298" cy="112" r="2" fill="white"/>
<circle cx="308" cy="112" r="2" fill="white"/>
<circle cx="318" cy="112" r="2" fill="white"/>
<circle cx="328" cy="112" r="2" fill="white"/>
<circle cx="338" cy="112" r="2" fill="white"/>
<circle cx="348" cy="112" r="2" fill="white"/>
<circle cx="358" cy="112" r="2" fill="white"/>
<circle cx="368" cy="112" r="2" fill="white"/>
<circle cx="378" cy="112" r="2" fill="white"/>
<circle cx="388" cy="112" r="2" fill="white"/>
<circle cx="398" cy="112" r="2" fill="white"/>
<circle cx="408" cy="112" r="2" fill="white"/>
<circle cx="8" cy="122" r="2" fill="white"/>
<circle cx="18" cy="122" r="2" fill="white"/>
<circle cx="28" cy="122" r="2" fill="white"/>
<circle cx="38" cy="122" r="2" fill="white"/>
<circle cx="48" cy="122" r="2" fill="white"/>
<circle cx="58" cy="122" r="2" fill="white"/>
<circle cx="68" cy="122" r="2" fill="white"/>
<circle cx="78" cy="122" r="2" fill="white"/>
<circle cx="88" cy="122" r="2" fill="white"/>
<circle cx="98" cy="122" r="2" fill="white"/>
<circle cx="108" cy="122" r="2" fill="white"/>
<circle cx="118" cy="122" r="2" fill="white"/>
<circle cx="128" cy="122" r="2" fill="white"/>
<circle cx="138" cy="122" r="2" fill="white"/>
<circle cx="148" cy="122" r="2" fill="white"/>
<circle cx="158" cy="122" r="2" fill="white"/>
<circle cx="168" cy="122" r="2" fill="white"/>
<circle cx="178" cy="122" r="2" fill="white"/>
<circle cx="188" cy="122" r="2" fill="white"/>
<circle cx="198" cy="122" r="2" fill="white"/>
<circle cx="208" cy="122" r="2" fill="white"/>
<circle cx="218" cy="122" r="2" fill="white"/>
<circle cx="228" cy="122" r="2" fill="white"/>
<circle cx="238" cy="122" r="2" fill="white"/>
<circle cx="248" cy="122" r="2" fill="white"/>
<circle cx="258" cy="122" r="2" fill="white"/>
<circle cx="268" cy="122" r="2" fill="white"/>
<circle cx="278" cy="122" r="2" fill="white"/>
<circle cx="288" cy="122" r="2" fill="white"/>
<circle cx="298" cy="122" r="2" fill="white"/>
<circle cx="308" cy="122" r="2" fill="white"/>
<circle cx="318" cy="122" r="2" fill="white"/>
<circle cx="328" cy="122" r="2" fill="white"/>
<circle cx="338" cy="122" r="2" fill="white"/>
<circle cx="348" cy="122" r="2" fill="white"/>
<circle cx="358" cy="122" r="2" fill="white"/>
<circle cx="368" cy="122" r="2" fill="white"/>
<circle cx="378" cy="122" r="2" fill="white"/>
<circle cx="388" cy="122" r="2" fill="white"/>
<circle cx="398" cy="122" r="2" fill="white"/>
<circle cx="408" cy="122" r="2" fill="white"/>
<circle cx="8" cy="132" r="2" fill="white"/>
<circle cx="18" cy="132" r="2" fill="white"/>
<circle cx="28" cy="132" r="2" fill="white"/>
<circle cx="38" cy="132" r="2" fill="white"/>
<circle cx="48" cy="132" r="2" fill="white"/>
<circle cx="58" cy="132" r="2" fill="white"/>
<circle cx="68" cy="132" r="2" fill="white"/>
<circle cx="78" cy="132" r="2" fill="white"/>
<circle cx="88" cy="132" r="2" fill="white"/>
<circle cx="98" cy="132" r="2" fill="white"/>
<circle cx="108" cy="132" r="2" fill="white"/>
<circle cx="118" cy="132" r="2" fill="white"/>
<circle cx="128" cy="132" r="2" fill="white"/>
<circle cx="138" cy="132" r="2" fill="white"/>
<circle cx="148" cy="132" r="2" fill="white"/>
<circle cx="158" cy="132" r="2" fill="white"/>
<circle cx="168" cy="132" r="2" fill="white"/>
<circle cx="178" cy="132" r="2" fill="white"/>
<circle cx="188" cy="132" r="2" fill="white"/>
<circle cx="198" cy="132" r="2" fill="white"/>
<circle cx="208" cy="132" r="2" fill="white"/>
<circle cx="218" cy="132" r="2" fill="white"/>
<circle cx="228" cy="132" r="2" fill="white"/>
<circle cx="238" cy="132" r="2" fill="white"/>
<circle cx="248" cy="132" r="2" fill="white"/>
<circle cx="258" cy="132" r="2" fill="white"/>
<circle cx="268" cy="132" r="2" fill="white"/>
<circle cx="278" cy="132" r="2" fill="white"/>
<circle cx="288" cy="132" r="2" fill="white"/>
<circle cx="298" cy="132" r="2" fill="white"/>
<circle cx="308" cy="132" r="2" fill="white"/>
<circle cx="318" cy="132" r="2" fill="white"/>
<circle cx="328" cy="132" r="2" fill="white"/>
<circle cx="338" cy="132" r="2" fill="white"/>
<circle cx="348" cy="132" r="2" fill="white"/>
<circle cx="358" cy="132" r="2" fill="white"/>
<circle cx="368" cy="132" r="2" fill="white"/>
<circle cx="378" cy="132" r="2" fill="white"/>
<circle cx="388" cy="132" r="2" fill="white"/>
<circle cx="398" cy="132" r="2" fill="white"/>
<circle cx="408" cy="132" r="2" fill="white"/>
</g>
<defs>
<clipPath id="clip0_386_18177">
<rect width="480" height="140" fill="white" transform="translate(-34)"/>
</clipPath>
</defs>
</svg>
