<svg width="49" height="49" viewBox="0 0 49 49" fill="none" xmlns="http://www.w3.org/2000/svg">
<path d="M39.3334 13.7133C41.3938 15.9006 42.5002 18.3555 42.5002 22.3349C42.5002 29.3337 37.5872 35.6081 30.439 38.7091L28.6536 35.9539C35.3242 32.3447 36.6278 27.6633 37.149 24.7115C36.075 25.2669 34.669 25.4621 33.2908 25.3345C29.682 24.9999 26.8378 22.0373 26.8378 18.3555C26.8378 14.4895 29.9718 11.3555 33.8378 11.3555C35.984 11.3555 38.0362 12.3364 39.3334 13.7133ZM19.3334 13.7133C21.3938 15.9006 22.5002 18.3555 22.5002 22.3349C22.5002 29.3337 17.5872 35.6081 10.439 38.7091L8.65363 35.9539C15.3241 32.3447 16.6278 27.6633 17.1489 24.7115C16.0749 25.2669 14.669 25.4621 13.2908 25.3345C9.68203 24.9999 6.83789 22.0373 6.83789 18.3555C6.83789 14.4895 9.97189 11.3555 13.8379 11.3555C15.984 11.3555 18.0363 12.3364 19.3334 13.7133Z" fill="#7D7D7D"/>
</svg>
