<svg width="49" height="49" viewBox="0 0 49 49" fill="none" xmlns="http://www.w3.org/2000/svg">
<path d="M9.66682 34.9978C7.60632 32.8104 6.5 30.3556 6.5 26.3762C6.5 19.3773 11.413 13.1029 18.5612 10.002L20.3465 12.7572C13.6761 16.3664 12.3724 21.0476 11.8513 23.9996C12.9253 23.4442 14.3312 23.2488 15.7094 23.3766C19.3182 23.7112 22.1624 26.6736 22.1624 30.3556C22.1624 34.2216 19.0283 37.3556 15.1623 37.3556C13.0162 37.3556 10.9639 36.3746 9.66682 34.9978ZM29.6668 34.9978C27.6064 32.8104 26.5 30.3556 26.5 26.3762C26.5 19.3773 31.413 13.1029 38.5612 10.002L40.3466 12.7572C33.676 16.3664 32.3724 21.0476 31.8512 23.9996C32.9252 23.4442 34.3312 23.2488 35.7094 23.3766C39.3182 23.7112 42.1624 26.6736 42.1624 30.3556C42.1624 34.2216 39.0284 37.3556 35.1624 37.3556C33.0162 37.3556 30.964 36.3746 29.6668 34.9978Z" fill="#7D7D7D"/>
</svg>
