<svg width="32" height="32" viewBox="0 0 32 32" fill="none" xmlns="http://www.w3.org/2000/svg">
<rect width="32" height="32" rx="2" fill="#00AFEF"/>
<g filter="url(#filter0_d_636_93)">
<path fill-rule="evenodd" clip-rule="evenodd" d="M15.6994 25.6981C14.2282 25.6981 12.9062 25.4883 11.7335 25.0687C10.5821 24.6317 9.67592 24.0372 9.01493 23.2855C8.39945 22.5692 8.06128 21.7543 8.00043 20.8409C7.99297 20.7291 8.08367 20.6368 8.19581 20.6368H10.9172C11.0181 20.6368 11.1025 20.7121 11.1203 20.8115C11.2605 21.5925 11.6781 22.2598 12.3731 22.8134C13.1407 23.3904 14.2495 23.6788 15.6994 23.6788C17.0853 23.6788 18.1727 23.3991 18.9616 22.8396C19.7719 22.2627 20.177 21.5284 20.177 20.6368C20.177 19.9375 19.9424 19.3693 19.4734 18.9322C19.0043 18.4951 18.4179 18.1629 17.7143 17.9356C17.5708 17.8893 17.4172 17.8422 17.2533 17.7944C17.1263 17.7574 17 17.8533 17 17.9856V20.5C17 20.7761 16.7761 21 16.5 21H14.5C14.2239 21 14 20.7761 14 20.5V17.1668C14 17.0738 13.9358 16.9931 13.8452 16.9717C12.8379 16.7336 11.9954 16.4954 11.3177 16.2573C10.4435 15.9426 9.68658 15.4531 9.04692 14.7887C8.42858 14.1069 8.11941 13.1977 8.11941 12.0613C8.11941 11.9684 8.1221 11.8765 8.12748 11.7855C8.13354 11.683 8.22005 11.6051 8.32281 11.6051H10.8901C11.0104 11.6051 11.103 11.7105 11.0974 11.8306C11.095 11.8806 11.0938 11.9313 11.0938 11.9827C11.0938 12.647 11.3177 13.189 11.7655 13.6086C12.2346 14.0282 12.7996 14.3516 13.4606 14.5789C13.5512 14.6068 13.6465 14.6352 13.7465 14.6643C13.8736 14.7013 14 14.6054 14 14.473V9.5V9.5C14 9.37522 13.8715 9.16936 13.7498 9.19684C13.1777 9.32598 12.6762 9.53779 12.2452 9.83225C11.8179 10.1145 11.5095 10.4618 11.3201 10.8741C11.2857 10.949 11.2124 11 11.13 11H8.50332C8.37311 11 8.2775 10.8774 8.31722 10.7534C8.4709 10.2736 8.71414 9.82666 9.04692 9.41266C9.66525 8.64341 10.5288 8.04898 11.6375 7.62939C12.7676 7.2098 14.0576 7 15.5075 7C17.597 7 19.3028 7.42833 20.6247 8.285C21.8967 9.09616 22.6429 10.1581 22.8634 11.4709C22.8832 11.5892 22.7899 11.6942 22.67 11.6942H19.8691C19.7702 11.6942 19.6873 11.6217 19.6645 11.5256C19.5157 10.8961 19.0788 10.3404 18.354 9.85848C18.0145 9.62525 17.6276 9.44221 17.1933 9.30935C17.0963 9.27965 17 9.39848 17 9.5V9.5V15.3173C17 15.4097 17.0634 15.49 17.1532 15.512C18.239 15.7779 19.1403 16.0438 19.8572 16.3097C20.7527 16.6244 21.5203 17.1227 22.1599 17.8045C22.7996 18.4689 23.1194 19.378 23.1194 20.5319C23.1194 21.4235 22.8316 22.2627 22.2559 23.0494C21.6802 23.8362 20.8273 24.4743 19.6972 24.9638C18.5672 25.4534 17.2345 25.6981 15.6994 25.6981Z" fill="white"/>
</g>
<defs>
<filter id="filter0_d_636_93" x="7" y="6" width="17.1196" height="20.6982" filterUnits="userSpaceOnUse" color-interpolation-filters="sRGB">
<feFlood flood-opacity="0" result="BackgroundImageFix"/>
<feColorMatrix in="SourceAlpha" type="matrix" values="0 0 0 0 0 0 0 0 0 0 0 0 0 0 0 0 0 0 127 0" result="hardAlpha"/>
<feOffset/>
<feGaussianBlur stdDeviation="0.5"/>
<feComposite in2="hardAlpha" operator="out"/>
<feColorMatrix type="matrix" values="0 0 0 0 0 0 0 0 0 0 0 0 0 0 0 0 0 0 0.1 0"/>
<feBlend mode="normal" in2="BackgroundImageFix" result="effect1_dropShadow_636_93"/>
<feBlend mode="normal" in="SourceGraphic" in2="effect1_dropShadow_636_93" result="shape"/>
</filter>
</defs>
</svg>
