<svg width="24" height="25" viewBox="0 0 24 25" fill="none" xmlns="http://www.w3.org/2000/svg">
<rect y="0.355469" width="24" height="24" rx="12" fill="white"/>
<path d="M15.0001 9.67708V9.68375M6.66675 10.0104C6.66675 9.30317 6.9477 8.6249 7.4478 8.1248C7.94789 7.6247 8.62617 7.34375 9.33341 7.34375H14.6667C15.374 7.34375 16.0523 7.6247 16.5524 8.1248C17.0525 8.6249 17.3334 9.30317 17.3334 10.0104V15.3437C17.3334 16.051 17.0525 16.7293 16.5524 17.2294C16.0523 17.7295 15.374 18.0104 14.6667 18.0104H9.33341C8.62617 18.0104 7.94789 17.7295 7.4478 17.2294C6.9477 16.7293 6.66675 16.051 6.66675 15.3437V10.0104ZM10.0001 12.6771C10.0001 13.2075 10.2108 13.7162 10.5859 14.0913C10.9609 14.4664 11.4696 14.6771 12.0001 14.6771C12.5305 14.6771 13.0392 14.4664 13.4143 14.0913C13.7894 13.7162 14.0001 13.2075 14.0001 12.6771C14.0001 12.1467 13.7894 11.6379 13.4143 11.2629C13.0392 10.8878 12.5305 10.6771 12.0001 10.6771C11.4696 10.6771 10.9609 10.8878 10.5859 11.2629C10.2108 11.6379 10.0001 12.1467 10.0001 12.6771Z" stroke="#1A1A1A" stroke-linecap="round" stroke-linejoin="round"/>
</svg>
