<svg width="24" height="25" viewBox="0 0 24 25" fill="none" xmlns="http://www.w3.org/2000/svg">
<rect y="0.355469" width="24" height="24" rx="12" fill="white"/>
<path d="M9.33341 12.0104V15.3437M9.33341 10.0104V10.0171M12.0001 15.3437V12.0104M14.6667 15.3437V13.3437C14.6667 12.9901 14.5263 12.651 14.2762 12.4009C14.0262 12.1509 13.687 12.0104 13.3334 12.0104C12.9798 12.0104 12.6407 12.1509 12.3906 12.4009C12.1406 12.651 12.0001 12.9901 12.0001 13.3437M6.66675 8.67708C6.66675 8.32346 6.80722 7.98432 7.05727 7.73427C7.30732 7.48423 7.64646 7.34375 8.00008 7.34375H16.0001C16.3537 7.34375 16.6928 7.48423 16.9429 7.73427C17.1929 7.98432 17.3334 8.32346 17.3334 8.67708V16.6771C17.3334 17.0307 17.1929 17.3698 16.9429 17.6199C16.6928 17.8699 16.3537 18.0104 16.0001 18.0104H8.00008C7.64646 18.0104 7.30732 17.8699 7.05727 17.6199C6.80722 17.3698 6.66675 17.0307 6.66675 16.6771V8.67708Z" stroke="#1A1A1A" stroke-linecap="round" stroke-linejoin="round"/>
</svg>
