<svg width="130" height="41" viewBox="0 0 130 41" fill="none" xmlns="http://www.w3.org/2000/svg">
<g filter="url(#filter0_d_386_20207)">
<path fill-rule="evenodd" clip-rule="evenodd" d="M7.97564 34.4023C9.85677 35.0755 11.9773 35.4121 14.3373 35.4121C16.7998 35.4121 18.9375 35.0194 20.7502 34.234C22.5629 33.4486 23.931 32.4247 24.8545 31.1625C25.778 29.9002 26.2397 28.5538 26.2397 27.1232C26.2397 25.2719 25.7266 23.8132 24.7006 22.7473C23.6745 21.6533 22.4432 20.8539 21.0067 20.349C19.5702 19.816 17.672 19.2831 15.312 18.7501C13.3625 18.3013 11.8405 17.9086 10.746 17.572C9.68576 17.2073 8.7794 16.6884 8.02694 16.0152C7.52187 15.5418 7.19438 14.9713 7.04448 14.3037C6.98834 14.0537 6.77761 13.8588 6.52139 13.8588H2.70086C2.41813 13.8588 2.18997 14.0935 2.21598 14.375C2.34864 15.8108 2.83203 16.9886 3.66615 17.9086C4.69222 18.9745 5.9064 19.7599 7.30869 20.2648C8.74519 20.7698 10.6434 21.2747 13.0034 21.7796C14.9187 22.2003 16.4407 22.593 17.5694 22.9577C18.6981 23.3223 19.6386 23.8553 20.3911 24.5566C21.1435 25.2578 21.5198 26.1695 21.5198 27.2915C21.5198 28.7221 20.8699 29.9002 19.5702 30.8259C18.3047 31.7235 16.5604 32.1723 14.3373 32.1723C12.0115 32.1723 10.233 31.7094 9.00171 30.7838C7.93319 29.9325 7.27342 28.9136 7.02242 27.727C6.97021 27.4802 6.7602 27.2915 6.50793 27.2915H2.48394C2.20361 27.2915 1.97612 27.5224 2.00201 27.8015C2.13109 29.1932 2.6687 30.4398 3.61484 31.5411C4.67512 32.7473 6.12871 33.701 7.97564 34.4023ZM2.75172 12.8879C2.45839 12.8879 2.22631 12.636 2.27483 12.3467C2.46309 11.2242 2.92686 10.203 3.66615 9.28308C4.65801 8.04886 6.04321 7.09514 7.82173 6.42193C9.63445 5.74872 11.7037 5.41211 14.0295 5.41211C17.3813 5.41211 20.1175 6.09935 22.238 7.47382C24.2137 8.7341 25.3987 10.3717 25.7929 12.3866C25.8504 12.6809 25.6166 12.9437 25.3167 12.9437H21.1798C20.9327 12.9437 20.7266 12.7618 20.6589 12.5242C20.3885 11.5753 19.7007 10.7333 18.5955 9.99837C17.33 9.1288 15.6541 8.69402 13.5677 8.69402C11.6182 8.69402 10.0278 9.11477 8.7965 9.95629C7.84566 10.5845 7.26195 11.4134 7.04538 12.443C6.99269 12.6936 6.78154 12.8879 6.52554 12.8879H2.75172Z" fill="white"/>
<path fill-rule="evenodd" clip-rule="evenodd" d="M2.71006 12.9357C2.43326 12.9357 2.20688 12.7104 2.22953 12.4345C2.33369 11.1659 2.82185 10.0282 3.694 9.02143C4.68443 7.87814 6.06762 6.9947 7.84357 6.37109C9.65368 5.74749 11.6867 5.30078 14.0091 5.30078C17.3561 5.30078 20.1216 6.07228 22.2391 7.34548C24.2004 8.50607 25.4278 10.4655 25.8365 12.3972C25.8989 12.6924 25.6649 12.9579 25.3632 12.9579H21.147C20.9022 12.9579 20.6961 12.7789 20.6152 12.5478C20.2775 11.583 19.3256 10.4393 18.2357 9.75586C18.2135 9.74196 18.1903 9.73009 18.1662 9.71997C17.9143 9.61428 17.6795 9.51105 17.4544 9.41213C17.3613 9.37122 17.2699 9.33106 17.1797 9.29175C16.8572 9.15131 16.505 9.38985 16.505 9.74154V29.7011C16.505 29.9772 16.2811 30.2011 16.005 30.2011H11.8679C11.5918 30.2011 11.3679 29.9772 11.3679 29.7011V9.54055C11.3679 9.21063 11.0536 8.97065 10.7415 9.07751C10.0981 9.29777 9.51725 9.57131 8.98424 9.90491C8.95873 9.92087 8.93486 9.93928 8.91275 9.95969C8.90974 9.96246 8.90673 9.96524 8.90373 9.96801C7.93161 10.8653 7.36188 11.3911 7.01316 12.5524C6.94635 12.7749 6.74719 12.9357 6.51489 12.9357H2.71006Z" fill="white"/>
</g>
<line x1="34.7397" y1="2.35547" x2="34.7397" y2="38.3555" stroke="white" stroke-opacity="0.4"/>
<path d="M42.8337 13.5505H43.2627C43.3654 14.2471 43.6441 14.7971 44.0987 15.2005C44.5534 15.5965 45.1144 15.7945 45.7817 15.7945C46.0531 15.7945 46.3024 15.7615 46.5297 15.6955C46.7571 15.6295 46.9514 15.5378 47.1127 15.4205C47.2741 15.2958 47.3987 15.1528 47.4867 14.9915C47.5747 14.8228 47.6187 14.6358 47.6187 14.4305C47.6187 14.2545 47.5894 14.1041 47.5307 13.9795C47.4794 13.8475 47.3767 13.7228 47.2227 13.6055C47.0687 13.4808 46.8561 13.3561 46.5847 13.2315C46.3207 13.1068 45.9761 12.9638 45.5507 12.8025C44.6927 12.4725 44.0584 12.0911 43.6477 11.6585C43.2371 11.2185 43.0317 10.7015 43.0317 10.1075C43.0317 9.7628 43.0977 9.44747 43.2297 9.16147C43.3617 8.87547 43.5451 8.6298 43.7797 8.42447C44.0217 8.21914 44.3077 8.06147 44.6377 7.95147C44.9751 7.83413 45.3454 7.77547 45.7487 7.77547C46.1227 7.77547 46.4747 7.83413 46.8047 7.95147C47.1347 8.0688 47.4611 8.2448 47.7837 8.47947L47.9817 7.92947H48.2457L48.3667 10.3055H47.9377C47.7617 9.70414 47.4867 9.2458 47.1127 8.93047C46.7387 8.6078 46.3061 8.44647 45.8147 8.44647C45.3601 8.44647 44.9897 8.56014 44.7037 8.78747C44.4251 9.00747 44.2857 9.29347 44.2857 9.64547C44.2857 9.79947 44.3114 9.9388 44.3627 10.0635C44.4141 10.1808 44.5094 10.2945 44.6487 10.4045C44.7881 10.5145 44.9787 10.6281 45.2207 10.7455C45.4627 10.8555 45.7744 10.9801 46.1557 11.1195C46.6691 11.3175 47.1054 11.5191 47.4647 11.7245C47.8314 11.9225 48.1284 12.1388 48.3557 12.3735C48.5904 12.6008 48.7627 12.8428 48.8727 13.0995C48.9827 13.3561 49.0377 13.6385 49.0377 13.9465C49.0377 14.3205 48.9571 14.6615 48.7957 14.9695C48.6344 15.2775 48.4071 15.5415 48.1137 15.7615C47.8277 15.9815 47.4831 16.1538 47.0797 16.2785C46.6837 16.4031 46.2437 16.4655 45.7597 16.4655C45.3197 16.4655 44.9237 16.4068 44.5717 16.2895C44.2197 16.1648 43.8567 15.9668 43.4827 15.6955L43.2627 16.3555H42.9987L42.8337 13.5505ZM52.3717 14.5405C52.3717 14.8485 52.379 15.0905 52.3937 15.2665C52.4084 15.4425 52.4487 15.5781 52.5147 15.6735C52.5807 15.7615 52.676 15.8201 52.8007 15.8495C52.9254 15.8788 53.0977 15.9008 53.3177 15.9155V16.3555H49.8417V15.9155C50.0617 15.9008 50.2377 15.8788 50.3697 15.8495C50.5017 15.8201 50.6007 15.7615 50.6667 15.6735C50.7327 15.5855 50.7767 15.4608 50.7987 15.2995C50.8207 15.1308 50.8317 14.9071 50.8317 14.6285V13.2645C50.8317 12.8465 50.8244 12.4981 50.8097 12.2195C50.8024 11.9408 50.784 11.7501 50.7547 11.6475C50.7327 11.5521 50.7034 11.4788 50.6667 11.4275C50.6374 11.3688 50.586 11.3248 50.5127 11.2955C50.4467 11.2588 50.3587 11.2368 50.2487 11.2295C50.1387 11.2148 49.9957 11.2075 49.8197 11.2075V10.8335L51.9427 10.4155L52.0747 11.3725H52.1407C52.4487 11.0278 52.7567 10.7821 53.0647 10.6355C53.38 10.4888 53.743 10.4155 54.1537 10.4155C54.6377 10.4155 55.0374 10.4998 55.3527 10.6685C55.668 10.8371 55.9064 11.0791 56.0677 11.3945H56.1117C56.3757 11.0865 56.691 10.8481 57.0577 10.6795C57.4244 10.5035 57.8167 10.4155 58.2347 10.4155C58.6747 10.4155 59.056 10.4705 59.3787 10.5805C59.7087 10.6905 59.9654 10.8481 60.1487 11.0535C60.2954 11.2221 60.4017 11.4421 60.4677 11.7135C60.541 11.9848 60.5777 12.3625 60.5777 12.8465V14.5405C60.5777 14.8411 60.585 15.0795 60.5997 15.2555C60.6217 15.4315 60.6657 15.5671 60.7317 15.6625C60.7977 15.7578 60.893 15.8201 61.0177 15.8495C61.1424 15.8788 61.3147 15.9008 61.5347 15.9155V16.3555H58.0587V15.9155C58.2787 15.9081 58.451 15.8898 58.5757 15.8605C58.7077 15.8238 58.8067 15.7615 58.8727 15.6735C58.946 15.5781 58.99 15.4498 59.0047 15.2885C59.0267 15.1271 59.0377 14.9071 59.0377 14.6285V13.1875C59.0377 12.8061 59.0157 12.4835 58.9717 12.2195C58.9277 11.9555 58.858 11.7428 58.7627 11.5815C58.6674 11.4201 58.539 11.3065 58.3777 11.2405C58.2237 11.1671 58.033 11.1305 57.8057 11.1305C57.549 11.1305 57.3364 11.1928 57.1677 11.3175C57.0064 11.4421 56.8707 11.6035 56.7607 11.8015C56.57 12.1461 56.4747 12.5751 56.4747 13.0885V14.5405C56.4747 14.8411 56.482 15.0795 56.4967 15.2555C56.5114 15.4315 56.5517 15.5671 56.6177 15.6625C56.6837 15.7578 56.779 15.8201 56.9037 15.8495C57.0357 15.8788 57.2154 15.9008 57.4427 15.9155V16.3555H53.9557V15.9155C54.1757 15.9008 54.348 15.8788 54.4727 15.8495C54.6047 15.8201 54.7037 15.7615 54.7697 15.6735C54.843 15.5855 54.887 15.4608 54.9017 15.2995C54.9237 15.1308 54.9347 14.9071 54.9347 14.6285V13.1875C54.9347 12.8061 54.9127 12.4835 54.8687 12.2195C54.8247 11.9555 54.7514 11.7428 54.6487 11.5815C54.5534 11.4201 54.425 11.3065 54.2637 11.2405C54.1024 11.1671 53.9007 11.1305 53.6587 11.1305C53.4167 11.1305 53.215 11.1891 53.0537 11.3065C52.8997 11.4238 52.7714 11.5815 52.6687 11.7795C52.5734 11.9555 52.5 12.1571 52.4487 12.3845C52.3974 12.6118 52.3717 12.8465 52.3717 13.0885V14.5405ZM65.4886 13.2205C64.8726 13.4991 64.4069 13.7595 64.0916 14.0015C63.7836 14.2361 63.6296 14.4818 63.6296 14.7385C63.6296 14.9511 63.6883 15.1198 63.8056 15.2445C63.9229 15.3691 64.0696 15.4315 64.2456 15.4315C64.4216 15.4315 64.5866 15.4021 64.7406 15.3435C64.8946 15.2775 65.0266 15.1931 65.1366 15.0905C65.2466 14.9878 65.3309 14.8668 65.3896 14.7275C65.4556 14.5808 65.4886 14.4268 65.4886 14.2655V13.2205ZM65.4886 12.6375V12.1755C65.4886 11.7501 65.4116 11.4421 65.2576 11.2515C65.1109 11.0535 64.8799 10.9545 64.5646 10.9545C64.3519 10.9545 64.1906 11.0131 64.0806 11.1305C63.9706 11.2405 63.8679 11.4275 63.7726 11.6915C63.7066 11.8748 63.6113 12.0178 63.4866 12.1205C63.3693 12.2231 63.2043 12.2745 62.9916 12.2745C62.7863 12.2745 62.6286 12.2121 62.5186 12.0875C62.4086 11.9628 62.3536 11.7868 62.3536 11.5595C62.3536 11.2075 62.5443 10.9288 62.9256 10.7235C63.3143 10.5181 63.8973 10.4155 64.6746 10.4155C65.4959 10.4155 66.0826 10.5658 66.4346 10.8665C66.7866 11.1598 66.9626 11.6548 66.9626 12.3515V14.7605C66.9626 15.3838 67.0873 15.6955 67.3366 15.6955C67.4759 15.6955 67.6043 15.6478 67.7216 15.5525L67.8866 15.8715C67.7839 16.0548 67.6226 16.2015 67.4026 16.3115C67.1899 16.4141 66.9479 16.4655 66.6766 16.4655C66.3393 16.4655 66.0826 16.3628 65.9066 16.1575C65.7306 15.9521 65.6426 15.6625 65.6426 15.2885H65.5876C65.3749 15.6698 65.0999 15.9595 64.7626 16.1575C64.4253 16.3555 64.0403 16.4545 63.6076 16.4545C63.1456 16.4545 62.7753 16.3261 62.4966 16.0695C62.2179 15.8055 62.0786 15.4645 62.0786 15.0465C62.0786 14.7238 62.2216 14.4231 62.5076 14.1445C62.7936 13.8585 63.2703 13.5798 63.9376 13.3085L65.4886 12.6375ZM70.859 14.6505C70.859 14.9365 70.87 15.1638 70.892 15.3325C70.9213 15.4938 70.9763 15.6185 71.057 15.7065C71.1377 15.7945 71.255 15.8531 71.409 15.8825C71.563 15.9045 71.7683 15.9155 72.025 15.9155V16.3555H68.351V15.9155C68.571 15.9008 68.747 15.8788 68.879 15.8495C69.011 15.8201 69.11 15.7615 69.176 15.6735C69.242 15.5855 69.2823 15.4608 69.297 15.2995C69.319 15.1308 69.33 14.9071 69.33 14.6285V13.2865C69.33 12.8318 69.319 12.4688 69.297 12.1975C69.275 11.9261 69.2273 11.7171 69.154 11.5705C69.0807 11.4238 68.9743 11.3285 68.835 11.2845C68.703 11.2331 68.527 11.2075 68.307 11.2075V10.8225L70.507 10.4155L70.683 11.6805H70.727C70.925 11.2918 71.1853 10.9838 71.508 10.7565C71.8307 10.5291 72.1717 10.4155 72.531 10.4155C72.8097 10.4155 73.037 10.4851 73.213 10.6245C73.389 10.7638 73.477 10.9398 73.477 11.1525C73.477 11.3871 73.4073 11.5851 73.268 11.7465C73.136 11.9078 72.9527 11.9885 72.718 11.9885C72.608 11.9885 72.509 11.9665 72.421 11.9225C72.333 11.8785 72.2523 11.8308 72.179 11.7795C72.113 11.7208 72.0433 11.6695 71.97 11.6255C71.904 11.5741 71.8343 11.5485 71.761 11.5485C71.6217 11.5485 71.4897 11.6401 71.365 11.8235C71.2403 12.0068 71.1377 12.2525 71.057 12.5605C70.9983 12.7805 70.9507 13.0298 70.914 13.3085C70.8773 13.5798 70.859 13.8511 70.859 14.1225V14.6505ZM77.4375 15.9155C77.6722 15.9155 77.8372 15.9081 77.9325 15.8935C78.0278 15.8715 78.0755 15.8311 78.0755 15.7725C78.0755 15.7285 78.0242 15.6221 77.9215 15.4535C77.8262 15.2775 77.7015 15.0758 77.5475 14.8485L76.7115 13.5945L76.1615 14.1225V14.5515C76.1615 14.8375 76.1725 15.0685 76.1945 15.2445C76.2165 15.4205 76.2532 15.5598 76.3045 15.6625C76.3632 15.7578 76.4402 15.8238 76.5355 15.8605C76.6382 15.8971 76.7665 15.9155 76.9205 15.9155V16.3555H73.6755V15.9155C73.8808 15.9081 74.0458 15.8861 74.1705 15.8495C74.2952 15.8128 74.3942 15.7505 74.4675 15.6625C74.5408 15.5671 74.5885 15.4388 74.6105 15.2775C74.6398 15.1088 74.6545 14.8925 74.6545 14.6285V9.96447C74.6545 9.51714 74.6472 9.16514 74.6325 8.90847C74.6178 8.6518 74.5775 8.46114 74.5115 8.33647C74.4528 8.20447 74.3575 8.1238 74.2255 8.09447C74.1008 8.06513 73.9285 8.05047 73.7085 8.05047V7.64347L76.1615 7.22547V13.3415L77.2175 12.3405C77.5988 11.9811 77.8702 11.7135 78.0315 11.5375C78.1928 11.3541 78.2735 11.2221 78.2735 11.1415C78.2735 11.0755 78.2038 11.0315 78.0645 11.0095C77.9325 10.9801 77.6832 10.9655 77.3165 10.9655V10.5255H80.3195V10.9655C80.0408 10.9655 79.7952 11.0131 79.5825 11.1085C79.3698 11.2038 79.1388 11.3688 78.8895 11.6035L77.8225 12.6045L79.7255 15.2995C79.8942 15.5341 80.0592 15.6955 80.2205 15.7835C80.3818 15.8715 80.5945 15.9155 80.8585 15.9155V16.3555H77.4375V15.9155ZM83.6312 14.5515C83.6312 14.8448 83.6422 15.0795 83.6642 15.2555C83.6862 15.4315 83.7302 15.5671 83.7962 15.6625C83.8622 15.7578 83.9575 15.8238 84.0822 15.8605C84.2069 15.8898 84.3755 15.9081 84.5882 15.9155V16.3555H81.1232V15.9155C81.3285 15.9081 81.4935 15.8861 81.6182 15.8495C81.7502 15.8055 81.8492 15.7395 81.9152 15.6515C81.9885 15.5561 82.0362 15.4278 82.0582 15.2665C82.0875 15.0978 82.1022 14.8851 82.1022 14.6285V13.2755C82.1022 12.8501 82.0949 12.5018 82.0802 12.2305C82.0655 11.9518 82.0472 11.7611 82.0252 11.6585C81.9885 11.4751 81.9042 11.3541 81.7722 11.2955C81.6475 11.2368 81.4165 11.2075 81.0792 11.2075V10.8335L83.6312 10.4155V14.5515ZM82.0142 8.08347C82.0142 7.84147 82.0949 7.6398 82.2562 7.47847C82.4249 7.3098 82.6265 7.22547 82.8612 7.22547C83.1032 7.22547 83.3049 7.3098 83.4662 7.47847C83.6349 7.6398 83.7192 7.84147 83.7192 8.08347C83.7192 8.31814 83.6349 8.5198 83.4662 8.68847C83.3049 8.8498 83.1032 8.93047 82.8612 8.93047C82.6265 8.93047 82.4249 8.8498 82.2562 8.68847C82.0949 8.5198 82.0142 8.31814 82.0142 8.08347ZM85.0538 11.1305V10.6355C85.4938 10.5108 85.8605 10.3238 86.1538 10.0745C86.4545 9.8178 86.6781 9.52447 86.8248 9.19447H87.3858V10.5255H88.6508V11.1305H87.3858V14.5075C87.3858 14.9621 87.4335 15.2848 87.5288 15.4755C87.6315 15.6661 87.8001 15.7615 88.0348 15.7615C88.3208 15.7615 88.5371 15.6295 88.6838 15.3655L88.9148 15.6845C88.7095 16.2051 88.2255 16.4655 87.4628 16.4655C86.9568 16.4655 86.5608 16.3481 86.2748 16.1135C85.9961 15.8788 85.8568 15.5488 85.8568 15.1235V11.1305H85.0538ZM92.763 13.2205C92.147 13.4991 91.6813 13.7595 91.366 14.0015C91.058 14.2361 90.904 14.4818 90.904 14.7385C90.904 14.9511 90.9627 15.1198 91.08 15.2445C91.1973 15.3691 91.344 15.4315 91.52 15.4315C91.696 15.4315 91.861 15.4021 92.015 15.3435C92.169 15.2775 92.301 15.1931 92.411 15.0905C92.521 14.9878 92.6053 14.8668 92.664 14.7275C92.73 14.5808 92.763 14.4268 92.763 14.2655V13.2205ZM92.763 12.6375V12.1755C92.763 11.7501 92.686 11.4421 92.532 11.2515C92.3853 11.0535 92.1543 10.9545 91.839 10.9545C91.6263 10.9545 91.465 11.0131 91.355 11.1305C91.245 11.2405 91.1423 11.4275 91.047 11.6915C90.981 11.8748 90.8857 12.0178 90.761 12.1205C90.6437 12.2231 90.4787 12.2745 90.266 12.2745C90.0607 12.2745 89.903 12.2121 89.793 12.0875C89.683 11.9628 89.628 11.7868 89.628 11.5595C89.628 11.2075 89.8187 10.9288 90.2 10.7235C90.5887 10.5181 91.1717 10.4155 91.949 10.4155C92.7703 10.4155 93.357 10.5658 93.709 10.8665C94.061 11.1598 94.237 11.6548 94.237 12.3515V14.7605C94.237 15.3838 94.3617 15.6955 94.611 15.6955C94.7503 15.6955 94.8787 15.6478 94.996 15.5525L95.161 15.8715C95.0583 16.0548 94.897 16.2015 94.677 16.3115C94.4643 16.4141 94.2223 16.4655 93.951 16.4655C93.6137 16.4655 93.357 16.3628 93.181 16.1575C93.005 15.9521 92.917 15.6625 92.917 15.2885H92.862C92.6493 15.6698 92.3743 15.9595 92.037 16.1575C91.6997 16.3555 91.3147 16.4545 90.882 16.4545C90.42 16.4545 90.0497 16.3261 89.771 16.0695C89.4923 15.8055 89.353 15.4645 89.353 15.0465C89.353 14.7238 89.496 14.4231 89.782 14.1445C90.068 13.8585 90.5447 13.5798 91.212 13.3085L92.763 12.6375ZM98.0124 14.5515C98.0124 14.8448 98.0234 15.0795 98.0454 15.2555C98.0674 15.4315 98.1114 15.5671 98.1774 15.6625C98.2434 15.7578 98.3387 15.8238 98.4634 15.8605C98.5881 15.8898 98.7567 15.9081 98.9694 15.9155V16.3555H95.5044V15.9155C95.7097 15.9081 95.8747 15.8861 95.9994 15.8495C96.1314 15.8055 96.2304 15.7395 96.2964 15.6515C96.3697 15.5561 96.4174 15.4278 96.4394 15.2665C96.4687 15.0978 96.4834 14.8851 96.4834 14.6285V10.0855C96.4834 9.66014 96.4761 9.3118 96.4614 9.04047C96.4467 8.7618 96.4284 8.57114 96.4064 8.46847C96.3697 8.28514 96.2854 8.16413 96.1534 8.10547C96.0287 8.0468 95.7977 8.01747 95.4604 8.01747V7.64347L98.0124 7.22547V14.5515ZM100.141 16.3555H99.7996V14.3535H100.262C100.386 14.8815 100.566 15.2665 100.801 15.5085C101.035 15.7505 101.34 15.8715 101.714 15.8715C101.985 15.8715 102.194 15.8165 102.341 15.7065C102.495 15.5891 102.572 15.4315 102.572 15.2335C102.572 15.0281 102.48 14.8301 102.297 14.6395C102.113 14.4415 101.816 14.2325 101.406 14.0125C100.848 13.7118 100.449 13.4148 100.207 13.1215C99.9646 12.8208 99.8436 12.4835 99.8436 12.1095C99.8436 11.8675 99.8876 11.6438 99.9756 11.4385C100.071 11.2258 100.196 11.0425 100.35 10.8885C100.511 10.7345 100.702 10.6171 100.922 10.5365C101.142 10.4485 101.38 10.4045 101.637 10.4045C101.864 10.4045 102.088 10.4375 102.308 10.5035C102.535 10.5695 102.733 10.6611 102.902 10.7785L103.1 10.5145H103.386V12.1755H102.957C102.788 11.7575 102.612 11.4568 102.429 11.2735C102.253 11.0901 102.036 10.9985 101.78 10.9985C101.574 10.9985 101.409 11.0535 101.285 11.1635C101.167 11.2735 101.109 11.4201 101.109 11.6035C101.109 11.8088 101.197 12.0031 101.373 12.1865C101.556 12.3698 101.857 12.5715 102.275 12.7915C102.568 12.9528 102.821 13.1105 103.034 13.2645C103.246 13.4185 103.419 13.5761 103.551 13.7375C103.683 13.8915 103.778 14.0565 103.837 14.2325C103.903 14.4011 103.936 14.5845 103.936 14.7825C103.936 15.0391 103.888 15.2701 103.793 15.4755C103.697 15.6808 103.562 15.8568 103.386 16.0035C103.21 16.1501 102.997 16.2638 102.748 16.3445C102.506 16.4251 102.234 16.4655 101.934 16.4655C101.618 16.4655 101.325 16.4251 101.054 16.3445C100.782 16.2565 100.559 16.1318 100.383 15.9705L100.141 16.3555ZM52.0197 24.7555H51.5037C51.4797 24.3635 51.4197 24.0395 51.3237 23.7835C51.2357 23.5195 51.1077 23.3115 50.9397 23.1595C50.7717 22.9995 50.5677 22.8915 50.3277 22.8355C50.0877 22.7715 49.8077 22.7395 49.4877 22.7395C49.1757 22.7395 48.9237 22.7475 48.7317 22.7635C48.5477 22.7715 48.4037 22.7915 48.2997 22.8235C48.2037 22.8475 48.1397 22.8835 48.1077 22.9315C48.0757 22.9795 48.0597 23.0395 48.0597 23.1115V29.3995C48.0597 29.6555 48.0757 29.8755 48.1077 30.0595C48.1477 30.2435 48.2237 30.3955 48.3357 30.5155C48.4477 30.6275 48.6117 30.7155 48.8277 30.7795C49.0437 30.8355 49.3277 30.8675 49.6797 30.8755V31.3555H44.6517V30.8755C45.0117 30.8675 45.2997 30.8355 45.5157 30.7795C45.7317 30.7155 45.8957 30.6275 46.0077 30.5155C46.1277 30.3955 46.2037 30.2435 46.2357 30.0595C46.2757 29.8755 46.2957 29.6555 46.2957 29.3995V23.1115C46.2957 23.0395 46.2797 22.9795 46.2477 22.9315C46.2237 22.8835 46.1677 22.8475 46.0797 22.8235C45.9917 22.7915 45.8637 22.7715 45.6957 22.7635C45.5357 22.7475 45.3237 22.7395 45.0597 22.7395C44.7717 22.7395 44.4957 22.7555 44.2317 22.7875C43.9677 22.8115 43.7357 22.8915 43.5357 23.0275C43.3357 23.1555 43.1717 23.3555 43.0437 23.6275C42.9237 23.8915 42.8597 24.2675 42.8517 24.7555H42.3837L42.5037 22.1155H51.8997L52.0197 24.7555ZM57.6729 30.2395C56.9449 31.0635 56.0369 31.4755 54.9489 31.4755C54.4529 31.4755 54.0009 31.3995 53.5929 31.2475C53.1929 31.0875 52.8489 30.8675 52.5609 30.5875C52.2729 30.2995 52.0489 29.9595 51.8889 29.5675C51.7289 29.1755 51.6489 28.7395 51.6489 28.2595C51.6489 27.7635 51.7329 27.3115 51.9009 26.9035C52.0689 26.4875 52.3049 26.1315 52.6089 25.8355C52.9209 25.5315 53.2849 25.2955 53.7009 25.1275C54.1249 24.9595 54.5889 24.8755 55.0929 24.8755C55.9409 24.8755 56.6009 25.1035 57.0729 25.5595C57.5449 26.0155 57.7809 26.6555 57.7809 27.4795C57.7809 27.6075 57.7609 27.6875 57.7209 27.7195C57.6809 27.7435 57.5689 27.7555 57.3849 27.7555H53.5209C53.4889 27.8275 53.4729 27.9595 53.4729 28.1515C53.4729 28.9355 53.6409 29.5555 53.9769 30.0115C54.3209 30.4675 54.7849 30.6955 55.3689 30.6955C55.7049 30.6955 56.0369 30.6195 56.3649 30.4675C56.7009 30.3155 57.0249 30.0995 57.3369 29.8195L57.6729 30.2395ZM55.3449 27.0835C55.6649 27.0835 55.8689 27.0675 55.9569 27.0355C56.0529 26.9955 56.1009 26.9075 56.1009 26.7715C56.1009 26.4195 56.0009 26.1315 55.8009 25.9075C55.6009 25.6835 55.3489 25.5715 55.0449 25.5715C54.7009 25.5715 54.3929 25.7155 54.1209 26.0035C53.8569 26.2835 53.6849 26.6435 53.6049 27.0835H55.3449ZM64.5484 30.3595C64.2444 30.6955 63.8644 30.9555 63.4084 31.1395C62.9604 31.3235 62.4724 31.4155 61.9444 31.4155C61.4564 31.4155 61.0124 31.3395 60.6124 31.1875C60.2124 31.0275 59.8684 30.8075 59.5804 30.5275C59.2924 30.2475 59.0684 29.9115 58.9084 29.5195C58.7564 29.1195 58.6804 28.6795 58.6804 28.1995C58.6804 27.7035 58.7644 27.2515 58.9324 26.8435C59.1004 26.4355 59.3364 26.0875 59.6404 25.7995C59.9444 25.5035 60.3084 25.2755 60.7324 25.1155C61.1564 24.9555 61.6244 24.8755 62.1364 24.8755C62.4964 24.8755 62.8284 24.9115 63.1324 24.9835C63.4444 25.0555 63.7084 25.1555 63.9244 25.2835C64.1484 25.4115 64.3244 25.5635 64.4524 25.7395C64.5804 25.9075 64.6444 26.0915 64.6444 26.2915C64.6444 26.5235 64.5764 26.7075 64.4404 26.8435C64.3124 26.9795 64.1364 27.0475 63.9124 27.0475C63.7284 27.0475 63.5644 26.9995 63.4204 26.9035C63.2844 26.8075 63.1484 26.6515 63.0124 26.4355C62.8924 26.2435 62.7884 26.0915 62.7004 25.9795C62.6204 25.8675 62.5444 25.7835 62.4724 25.7275C62.4004 25.6635 62.3284 25.6235 62.2564 25.6075C62.1844 25.5835 62.0964 25.5715 61.9924 25.5715C61.5284 25.5715 61.1684 25.7875 60.9124 26.2195C60.6564 26.6515 60.5284 27.2555 60.5284 28.0315C60.5284 28.8635 60.6804 29.5035 60.9844 29.9515C61.2964 30.3995 61.7404 30.6235 62.3164 30.6235C62.6444 30.6235 62.9724 30.5635 63.3004 30.4435C63.6284 30.3155 63.9404 30.1355 64.2364 29.9035L64.5484 30.3595ZM67.9138 29.3875C67.9138 29.7155 67.9218 29.9755 67.9378 30.1675C67.9618 30.3515 68.0058 30.4955 68.0698 30.5995C68.1418 30.7035 68.2458 30.7715 68.3818 30.8035C68.5258 30.8355 68.7178 30.8595 68.9578 30.8755V31.3555H65.1778V30.8755C65.4178 30.8595 65.6098 30.8355 65.7538 30.8035C65.8978 30.7715 66.0058 30.7075 66.0778 30.6115C66.1498 30.5155 66.1938 30.3795 66.2098 30.2035C66.2338 30.0195 66.2458 29.7755 66.2458 29.4715V24.5395C66.2458 24.0595 66.2378 23.6835 66.2218 23.4115C66.2138 23.1315 66.1938 22.9195 66.1618 22.7755C66.1378 22.6715 66.1098 22.5915 66.0778 22.5355C66.0458 22.4715 65.9938 22.4235 65.9218 22.3915C65.8578 22.3515 65.7658 22.3275 65.6458 22.3195C65.5338 22.3035 65.3898 22.2955 65.2138 22.2955V21.8515L67.8898 21.3955V25.8235H67.9378C68.1858 25.4955 68.4618 25.2555 68.7658 25.1035C69.0778 24.9515 69.4498 24.8755 69.8818 24.8755C70.6658 24.8755 71.2738 25.1155 71.7058 25.5955C71.9138 25.8355 72.0778 26.1275 72.1978 26.4715C72.3178 26.8075 72.3778 27.1595 72.3778 27.5275V29.3875C72.3778 29.7235 72.3858 29.9875 72.4018 30.1795C72.4178 30.3635 72.4578 30.5075 72.5218 30.6115C72.5938 30.7075 72.6978 30.7715 72.8338 30.8035C72.9698 30.8355 73.1578 30.8595 73.3978 30.8755V31.3555H69.6418V30.8755C69.8818 30.8675 70.0698 30.8475 70.2058 30.8155C70.3498 30.7755 70.4578 30.7075 70.5298 30.6115C70.6098 30.5155 70.6578 30.3795 70.6738 30.2035C70.6978 30.0195 70.7098 29.7755 70.7098 29.4715V27.9955C70.7098 27.1475 70.6178 26.5475 70.4338 26.1955C70.2498 25.8435 69.9338 25.6675 69.4858 25.6675C69.0058 25.6675 68.6258 25.8435 68.3458 26.1955C68.2098 26.3795 68.1018 26.6075 68.0218 26.8795C67.9498 27.1515 67.9138 27.4555 67.9138 27.7915V29.3875ZM76.6362 29.3995C76.6362 29.7275 76.6442 29.9875 76.6602 30.1795C76.6842 30.3635 76.7282 30.5075 76.7922 30.6115C76.8642 30.7075 76.9682 30.7715 77.1042 30.8035C77.2482 30.8355 77.4402 30.8595 77.6802 30.8755V31.3555H73.9002V30.8755C74.1322 30.8595 74.3162 30.8355 74.4522 30.8035C74.5962 30.7715 74.7042 30.7075 74.7762 30.6115C74.8562 30.5155 74.9082 30.3795 74.9322 30.2035C74.9562 30.0275 74.9682 29.7875 74.9682 29.4835V27.9835C74.9682 27.5115 74.9602 27.1315 74.9442 26.8435C74.9282 26.5475 74.9082 26.3475 74.8842 26.2435C74.8602 26.1395 74.8282 26.0555 74.7882 25.9915C74.7482 25.9195 74.6882 25.8675 74.6082 25.8355C74.5282 25.7955 74.4282 25.7715 74.3082 25.7635C74.1882 25.7475 74.0362 25.7395 73.8522 25.7395V25.3315L76.1682 24.8755L76.3242 25.9315H76.3722C76.6362 25.5955 76.9482 25.3355 77.3082 25.1515C77.6682 24.9675 78.0642 24.8755 78.4962 24.8755C79.0082 24.8755 79.4202 24.9475 79.7322 25.0915C80.0522 25.2275 80.3362 25.4595 80.5842 25.7875C80.7202 25.9715 80.8402 26.2115 80.9442 26.5075C81.0482 26.7955 81.1002 27.1955 81.1002 27.7075V29.3995C81.1002 29.7275 81.1082 29.9875 81.1242 30.1795C81.1482 30.3635 81.1922 30.5075 81.2562 30.6115C81.3282 30.7075 81.4322 30.7715 81.5682 30.8035C81.7042 30.8355 81.8882 30.8595 82.1202 30.8755V31.3555H78.3642V30.8755C78.6042 30.8675 78.7922 30.8475 78.9282 30.8155C79.0722 30.7755 79.1802 30.7075 79.2522 30.6115C79.3242 30.5155 79.3722 30.3795 79.3962 30.2035C79.4202 30.0195 79.4322 29.7795 79.4322 29.4835V27.8515C79.4322 27.4435 79.4082 27.0995 79.3602 26.8195C79.3122 26.5395 79.2322 26.3155 79.1202 26.1475C79.0162 25.9715 78.8762 25.8475 78.7002 25.7755C78.5242 25.6955 78.3042 25.6555 78.0402 25.6555C77.7842 25.6555 77.5642 25.7275 77.3802 25.8715C77.1962 26.0155 77.0362 26.2155 76.9002 26.4715C76.8282 26.6155 76.7642 26.8035 76.7082 27.0355C76.6602 27.2595 76.6362 27.4955 76.6362 27.7435V29.3995ZM86.207 24.8755C86.687 24.8755 87.139 24.9595 87.563 25.1275C87.995 25.2875 88.371 25.5115 88.691 25.7995C89.019 26.0875 89.275 26.4315 89.459 26.8315C89.651 27.2235 89.747 27.6555 89.747 28.1275C89.747 28.6155 89.651 29.0635 89.459 29.4715C89.275 29.8795 89.019 30.2315 88.691 30.5275C88.371 30.8235 87.995 31.0555 87.563 31.2235C87.139 31.3915 86.687 31.4755 86.207 31.4755C85.735 31.4755 85.287 31.3955 84.863 31.2355C84.439 31.0675 84.067 30.8355 83.747 30.5395C83.427 30.2435 83.175 29.8915 82.991 29.4835C82.807 29.0675 82.715 28.6155 82.715 28.1275C82.715 27.6555 82.807 27.2195 82.991 26.8195C83.175 26.4195 83.427 26.0755 83.747 25.7875C84.067 25.4995 84.439 25.2755 84.863 25.1155C85.287 24.9555 85.735 24.8755 86.207 24.8755ZM86.207 25.5715C85.967 25.5715 85.747 25.6355 85.547 25.7635C85.347 25.8835 85.175 26.0555 85.031 26.2795C84.895 26.5035 84.787 26.7755 84.707 27.0955C84.635 27.4075 84.599 27.7555 84.599 28.1395C84.599 28.5395 84.635 28.8995 84.707 29.2195C84.787 29.5395 84.895 29.8115 85.031 30.0355C85.175 30.2595 85.343 30.4355 85.535 30.5635C85.735 30.6835 85.959 30.7435 86.207 30.7435C86.455 30.7435 86.679 30.6835 86.879 30.5635C87.087 30.4355 87.263 30.2595 87.407 30.0355C87.551 29.8035 87.663 29.5275 87.743 29.2075C87.823 28.8875 87.863 28.5315 87.863 28.1395C87.863 27.7555 87.823 27.4075 87.743 27.0955C87.663 26.7835 87.551 26.5155 87.407 26.2915C87.263 26.0595 87.087 25.8835 86.879 25.7635C86.679 25.6355 86.455 25.5715 86.207 25.5715ZM93.1569 29.3875C93.1569 29.7075 93.1689 29.9635 93.1929 30.1555C93.2169 30.3475 93.2649 30.4955 93.3369 30.5995C93.4089 30.7035 93.5129 30.7755 93.6489 30.8155C93.7849 30.8475 93.9689 30.8675 94.2009 30.8755V31.3555H90.4209V30.8755C90.6449 30.8675 90.8249 30.8435 90.9609 30.8035C91.1049 30.7555 91.2129 30.6835 91.2849 30.5875C91.3649 30.4835 91.4169 30.3435 91.4409 30.1675C91.4729 29.9835 91.4889 29.7515 91.4889 29.4715V24.5155C91.4889 24.0515 91.4809 23.6715 91.4649 23.3755C91.4489 23.0715 91.4289 22.8635 91.4049 22.7515C91.3649 22.5515 91.2729 22.4195 91.1289 22.3555C90.9929 22.2915 90.7409 22.2595 90.3729 22.2595V21.8515L93.1569 21.3955V29.3875ZM98.3945 24.8755C98.8745 24.8755 99.3265 24.9595 99.7505 25.1275C100.182 25.2875 100.558 25.5115 100.878 25.7995C101.206 26.0875 101.462 26.4315 101.646 26.8315C101.838 27.2235 101.934 27.6555 101.934 28.1275C101.934 28.6155 101.838 29.0635 101.646 29.4715C101.462 29.8795 101.206 30.2315 100.878 30.5275C100.558 30.8235 100.182 31.0555 99.7505 31.2235C99.3265 31.3915 98.8745 31.4755 98.3945 31.4755C97.9225 31.4755 97.4745 31.3955 97.0505 31.2355C96.6265 31.0675 96.2545 30.8355 95.9345 30.5395C95.6145 30.2435 95.3625 29.8915 95.1785 29.4835C94.9945 29.0675 94.9025 28.6155 94.9025 28.1275C94.9025 27.6555 94.9945 27.2195 95.1785 26.8195C95.3625 26.4195 95.6145 26.0755 95.9345 25.7875C96.2545 25.4995 96.6265 25.2755 97.0505 25.1155C97.4745 24.9555 97.9225 24.8755 98.3945 24.8755ZM98.3945 25.5715C98.1545 25.5715 97.9345 25.6355 97.7345 25.7635C97.5345 25.8835 97.3625 26.0555 97.2185 26.2795C97.0825 26.5035 96.9745 26.7755 96.8945 27.0955C96.8225 27.4075 96.7865 27.7555 96.7865 28.1395C96.7865 28.5395 96.8225 28.8995 96.8945 29.2195C96.9745 29.5395 97.0825 29.8115 97.2185 30.0355C97.3625 30.2595 97.5305 30.4355 97.7225 30.5635C97.9225 30.6835 98.1465 30.7435 98.3945 30.7435C98.6425 30.7435 98.8665 30.6835 99.0665 30.5635C99.2745 30.4355 99.4505 30.2595 99.5945 30.0355C99.7385 29.8035 99.8505 29.5275 99.9305 29.2075C100.01 28.8875 100.05 28.5315 100.05 28.1395C100.05 27.7555 100.01 27.4075 99.9305 27.0955C99.8505 26.7835 99.7385 26.5155 99.5945 26.2915C99.4505 26.0595 99.2745 25.8835 99.0665 25.7635C98.8665 25.6355 98.6425 25.5715 98.3945 25.5715ZM105.116 30.0595C105.332 30.0755 105.52 30.0915 105.68 30.1075C105.848 30.1235 106.004 30.1435 106.148 30.1675C106.3 30.1835 106.448 30.2035 106.592 30.2275C106.744 30.2435 106.904 30.2635 107.072 30.2875C107.696 30.3755 108.184 30.6115 108.536 30.9955C108.896 31.3715 109.076 31.8395 109.076 32.3995C109.076 33.0795 108.796 33.5955 108.236 33.9475C107.676 34.2995 106.852 34.4755 105.764 34.4755C104.764 34.4755 103.992 34.3275 103.448 34.0315C102.912 33.7435 102.644 33.3315 102.644 32.7955C102.644 32.3795 102.752 32.0635 102.968 31.8475C103.184 31.6395 103.456 31.5355 103.784 31.5355C103.992 31.5355 104.192 31.5755 104.384 31.6555C104.584 31.7435 104.752 31.8675 104.888 32.0275C104.68 32.0675 104.508 32.1595 104.372 32.3035C104.244 32.4555 104.18 32.6315 104.18 32.8315C104.18 33.1515 104.32 33.3955 104.6 33.5635C104.888 33.7395 105.308 33.8275 105.86 33.8275C107.06 33.8275 107.66 33.4475 107.66 32.6875C107.66 32.4155 107.568 32.1795 107.384 31.9795C107.208 31.7875 106.952 31.6715 106.616 31.6315L104.516 31.3435C103.628 31.2235 103.184 30.8275 103.184 30.1555C103.184 29.8275 103.288 29.5595 103.496 29.3515C103.712 29.1435 104.016 28.9995 104.408 28.9195V28.8715C104.224 28.7995 104.056 28.6995 103.904 28.5715C103.76 28.4435 103.632 28.2955 103.52 28.1275C103.408 27.9595 103.32 27.7795 103.256 27.5875C103.2 27.3875 103.172 27.1835 103.172 26.9755C103.172 26.6795 103.232 26.4035 103.352 26.1475C103.48 25.8835 103.652 25.6595 103.868 25.4755C104.092 25.2915 104.352 25.1475 104.648 25.0435C104.952 24.9315 105.28 24.8755 105.632 24.8755C105.976 24.8755 106.312 24.9275 106.64 25.0315C106.968 25.1355 107.248 25.2795 107.48 25.4635C107.664 25.3515 107.824 25.2595 107.96 25.1875C108.096 25.1075 108.22 25.0475 108.332 25.0075C108.452 24.9595 108.56 24.9275 108.656 24.9115C108.752 24.8875 108.848 24.8755 108.944 24.8755C109.248 24.8755 109.492 24.9435 109.676 25.0795C109.868 25.2155 109.964 25.3955 109.964 25.6195C109.964 25.7875 109.912 25.9275 109.808 26.0395C109.704 26.1435 109.568 26.1955 109.4 26.1955C109.28 26.1955 109.184 26.1715 109.112 26.1235C109.04 26.0675 108.968 26.0075 108.896 25.9435C108.832 25.8715 108.764 25.8115 108.692 25.7635C108.62 25.7075 108.524 25.6795 108.404 25.6795C108.236 25.6795 108.076 25.7875 107.924 26.0035C108.004 26.1395 108.06 26.2875 108.092 26.4475C108.124 26.5995 108.14 26.7795 108.14 26.9875C108.14 27.2915 108.092 27.5715 107.996 27.8275C107.9 28.0835 107.748 28.3115 107.54 28.5115C107.34 28.7035 107.08 28.8675 106.76 29.0035C106.44 29.1395 106.052 29.2315 105.596 29.2795C105.212 29.3195 104.944 29.3715 104.792 29.4355C104.648 29.4995 104.576 29.5955 104.576 29.7235C104.576 29.9155 104.756 30.0275 105.116 30.0595ZM105.692 28.5955C105.948 28.5955 106.148 28.4595 106.292 28.1875C106.436 27.9155 106.508 27.5355 106.508 27.0475C106.508 26.5515 106.436 26.1715 106.292 25.9075C106.148 25.6355 105.944 25.4995 105.68 25.4995C105.408 25.4995 105.192 25.6355 105.032 25.9075C104.872 26.1795 104.792 26.5515 104.792 27.0235C104.792 27.5035 104.872 27.8875 105.032 28.1755C105.2 28.4555 105.42 28.5955 105.692 28.5955ZM112.789 29.3875C112.789 29.7075 112.801 29.9635 112.825 30.1555C112.849 30.3475 112.897 30.4955 112.969 30.5995C113.041 30.7035 113.145 30.7755 113.281 30.8155C113.417 30.8475 113.601 30.8675 113.833 30.8755V31.3555H110.053V30.8755C110.277 30.8675 110.457 30.8435 110.593 30.8035C110.737 30.7555 110.845 30.6835 110.917 30.5875C110.997 30.4835 111.049 30.3435 111.073 30.1675C111.105 29.9835 111.121 29.7515 111.121 29.4715V27.9955C111.121 27.5315 111.113 27.1515 111.097 26.8555C111.081 26.5515 111.061 26.3435 111.037 26.2315C110.997 26.0315 110.905 25.8995 110.761 25.8355C110.625 25.7715 110.373 25.7395 110.005 25.7395V25.3315L112.789 24.8755V29.3875ZM111.025 22.3315C111.025 22.0675 111.113 21.8475 111.289 21.6715C111.473 21.4875 111.693 21.3955 111.949 21.3955C112.213 21.3955 112.433 21.4875 112.609 21.6715C112.793 21.8475 112.885 22.0675 112.885 22.3315C112.885 22.5875 112.793 22.8075 112.609 22.9915C112.433 23.1675 112.213 23.2555 111.949 23.2555C111.693 23.2555 111.473 23.1675 111.289 22.9915C111.113 22.8075 111.025 22.5875 111.025 22.3315ZM120.521 30.2395C119.793 31.0635 118.885 31.4755 117.797 31.4755C117.301 31.4755 116.849 31.3995 116.441 31.2475C116.041 31.0875 115.697 30.8675 115.409 30.5875C115.121 30.2995 114.897 29.9595 114.737 29.5675C114.577 29.1755 114.497 28.7395 114.497 28.2595C114.497 27.7635 114.581 27.3115 114.749 26.9035C114.917 26.4875 115.153 26.1315 115.457 25.8355C115.769 25.5315 116.133 25.2955 116.549 25.1275C116.973 24.9595 117.437 24.8755 117.941 24.8755C118.789 24.8755 119.449 25.1035 119.921 25.5595C120.393 26.0155 120.629 26.6555 120.629 27.4795C120.629 27.6075 120.609 27.6875 120.569 27.7195C120.529 27.7435 120.417 27.7555 120.233 27.7555H116.369C116.337 27.8275 116.321 27.9595 116.321 28.1515C116.321 28.9355 116.489 29.5555 116.825 30.0115C117.169 30.4675 117.633 30.6955 118.217 30.6955C118.553 30.6955 118.885 30.6195 119.213 30.4675C119.549 30.3155 119.873 30.0995 120.185 29.8195L120.521 30.2395ZM118.193 27.0835C118.513 27.0835 118.717 27.0675 118.805 27.0355C118.901 26.9955 118.949 26.9075 118.949 26.7715C118.949 26.4195 118.849 26.1315 118.649 25.9075C118.449 25.6835 118.197 25.5715 117.893 25.5715C117.549 25.5715 117.241 25.7155 116.969 26.0035C116.705 26.2835 116.533 26.6435 116.453 27.0835H118.193ZM122.08 31.3555H121.708V29.1715H122.212C122.348 29.7475 122.544 30.1675 122.8 30.4315C123.056 30.6955 123.388 30.8275 123.796 30.8275C124.092 30.8275 124.32 30.7675 124.48 30.6475C124.648 30.5195 124.732 30.3475 124.732 30.1315C124.732 29.9075 124.632 29.6915 124.432 29.4835C124.232 29.2675 123.908 29.0395 123.46 28.7995C122.852 28.4715 122.416 28.1475 122.152 27.8275C121.888 27.4995 121.756 27.1315 121.756 26.7235C121.756 26.4595 121.804 26.2155 121.9 25.9915C122.004 25.7595 122.14 25.5595 122.308 25.3915C122.484 25.2235 122.692 25.0955 122.932 25.0075C123.172 24.9115 123.432 24.8635 123.712 24.8635C123.96 24.8635 124.204 24.8995 124.444 24.9715C124.692 25.0435 124.908 25.1435 125.092 25.2715L125.308 24.9835H125.62V26.7955H125.152C124.968 26.3395 124.776 26.0115 124.576 25.8115C124.384 25.6115 124.148 25.5115 123.868 25.5115C123.644 25.5115 123.464 25.5715 123.328 25.6915C123.2 25.8115 123.136 25.9715 123.136 26.1715C123.136 26.3955 123.232 26.6075 123.424 26.8075C123.624 27.0075 123.952 27.2275 124.408 27.4675C124.728 27.6435 125.004 27.8155 125.236 27.9835C125.468 28.1515 125.656 28.3235 125.8 28.4995C125.944 28.6675 126.048 28.8475 126.112 29.0395C126.184 29.2235 126.22 29.4235 126.22 29.6395C126.22 29.9195 126.168 30.1715 126.064 30.3955C125.96 30.6195 125.812 30.8115 125.62 30.9715C125.428 31.1315 125.196 31.2555 124.924 31.3435C124.66 31.4315 124.364 31.4755 124.036 31.4755C123.692 31.4755 123.372 31.4315 123.076 31.3435C122.78 31.2475 122.536 31.1115 122.344 30.9355L122.08 31.3555Z" fill="white"/>
<defs>
<filter id="filter0_d_386_20207" x="1.2" y="5.30078" width="25.8397" height="31.9113" filterUnits="userSpaceOnUse" color-interpolation-filters="sRGB">
<feFlood flood-opacity="0" result="BackgroundImageFix"/>
<feColorMatrix in="SourceAlpha" type="matrix" values="0 0 0 0 0 0 0 0 0 0 0 0 0 0 0 0 0 0 127 0" result="hardAlpha"/>
<feOffset dy="1"/>
<feGaussianBlur stdDeviation="0.4"/>
<feComposite in2="hardAlpha" operator="out"/>
<feColorMatrix type="matrix" values="0 0 0 0 0 0 0 0 0 0 0 0 0 0 0 0 0 0 0.05 0"/>
<feBlend mode="normal" in2="BackgroundImageFix" result="effect1_dropShadow_386_20207"/>
<feBlend mode="normal" in="SourceGraphic" in2="effect1_dropShadow_386_20207" result="shape"/>
</filter>
</defs>
</svg>
