<svg width="14" height="15" viewBox="0 0 14 15" fill="none" xmlns="http://www.w3.org/2000/svg">
<path d="M1.75 4.43815C1.75 4.12873 1.87292 3.83199 2.09171 3.61319C2.3105 3.3944 2.60725 3.27148 2.91667 3.27148H11.0833C11.3928 3.27148 11.6895 3.3944 11.9083 3.61319C12.1271 3.83199 12.25 4.12873 12.25 4.43815M1.75 4.43815V10.2715C1.75 10.5809 1.87292 10.8777 2.09171 11.0964C2.3105 11.3152 2.60725 11.4382 2.91667 11.4382H11.0833C11.3928 11.4382 11.6895 11.3152 11.9083 11.0964C12.1271 10.8777 12.25 10.5809 12.25 10.2715V4.43815M1.75 4.43815L7 7.93815L12.25 4.43815" stroke="white" stroke-linecap="round" stroke-linejoin="round"/>
</svg>
