<svg width="14" height="15" viewBox="0 0 14 15" fill="none" xmlns="http://www.w3.org/2000/svg">
<path d="M5.24992 6.77214C5.24992 7.23626 5.43429 7.68138 5.76248 8.00957C6.09067 8.33776 6.53579 8.52214 6.99992 8.52214C7.46405 8.52214 7.90917 8.33776 8.23736 8.00957C8.56554 7.68138 8.74992 7.23626 8.74992 6.77214C8.74992 6.30801 8.56554 5.86289 8.23736 5.5347C7.90917 5.20651 7.46405 5.02214 6.99992 5.02214C6.53579 5.02214 6.09067 5.20651 5.76248 5.5347C5.43429 5.86289 5.24992 6.30801 5.24992 6.77214Z" stroke="white" stroke-linecap="round" stroke-linejoin="round"/>
<path d="M10.2998 10.0719L7.82475 12.547C7.606 12.7655 7.30943 12.8883 7.00021 12.8883C6.691 12.8883 6.39443 12.7655 6.17567 12.547L3.7 10.0719C3.04738 9.41923 2.60295 8.58771 2.42291 7.68247C2.24286 6.77723 2.33529 5.83893 2.68851 4.98622C3.04172 4.13352 3.63986 3.4047 4.40728 2.89193C5.17471 2.37916 6.07695 2.10547 6.99992 2.10547C7.92289 2.10547 8.82513 2.37916 9.59256 2.89193C10.36 3.4047 10.9581 4.13352 11.3113 4.98622C11.6646 5.83893 11.757 6.77723 11.5769 7.68247C11.3969 8.58771 10.9525 9.41923 10.2998 10.0719Z" stroke="white" stroke-linecap="round" stroke-linejoin="round"/>
</svg>
