<svg width="20" height="21" viewBox="0 0 20 21" fill="none" xmlns="http://www.w3.org/2000/svg">
<path d="M11.6667 8.48009C11.1809 8.0532 10.5493 7.82997 9.90319 7.85682C9.25707 7.88367 8.64616 8.15854 8.1975 8.62426C7.7495 9.08909 7.49919 9.70952 7.49919 10.3551C7.49919 11.0007 7.7495 11.6211 8.1975 12.0859C8.64616 12.5516 9.25707 12.8265 9.90319 12.8534C10.5493 12.8802 11.1809 12.657 11.6667 12.2301M2.5 10.3555C2.5 11.3404 2.69399 12.3157 3.0709 13.2256C3.44781 14.1355 4.00026 14.9623 4.6967 15.6588C5.39314 16.3552 6.21993 16.9077 7.12987 17.2846C8.03982 17.6615 9.01509 17.8555 10 17.8555C10.9849 17.8555 11.9602 17.6615 12.8701 17.2846C13.7801 16.9077 14.6069 16.3552 15.3033 15.6588C15.9997 14.9623 16.5522 14.1355 16.9291 13.2256C17.306 12.3157 17.5 11.3404 17.5 10.3555C17.5 9.37055 17.306 8.39528 16.9291 7.48534C16.5522 6.5754 15.9997 5.74861 15.3033 5.05217C14.6069 4.35573 13.7801 3.80328 12.8701 3.42637C11.9602 3.04946 10.9849 2.85547 10 2.85547C9.01509 2.85547 8.03982 3.04946 7.12987 3.42637C6.21993 3.80328 5.39314 4.35573 4.6967 5.05217C4.00026 5.74861 3.44781 6.5754 3.0709 7.48534C2.69399 8.39528 2.5 9.37055 2.5 10.3555Z" stroke="white" stroke-linecap="round" stroke-linejoin="round"/>
</svg>
